<svg xmlns="http://www.w3.org/2000/svg" id="Capa_1" height="512" viewBox="0 0 511.992 511.992" width="512"><g><g><path d="m435.091 19.117v473.759c0 5.818-5.997 9.702-11.306 7.323l-30.187-13.526c-2.088-.935-4.475-.935-6.563 0l-38.211 17.121c-2.088.935-4.475.935-6.563 0l-38.211-17.121c-2.088-.935-4.475-.935-6.563 0l-38.211 17.121c-2.088.935-4.475.935-6.563 0l-38.211-17.121c-2.088-.935-4.475-.935-6.563 0l-38.211 17.121c-2.088.935-4.475.935-6.563 0l-38.211-17.121c-2.088-.935-4.475-.935-6.563 0l-30.187 13.526c-5.309 2.379-11.306-1.506-11.306-7.323v-473.759c0-5.818 5.997-9.702 11.306-7.323l30.187 13.526c2.088.935 4.475.935 6.563 0l38.211-17.121c2.088-.935 4.475-.935 6.563 0l38.211 17.121c2.088.935 4.475.935 6.563 0l38.211-17.121c2.088-.935 4.475-.935 6.563 0l38.211 17.121c2.088.935 4.475.935 6.563 0l38.211-17.121c2.088-.935 4.475-.935 6.563 0l38.211 17.121c2.088.935 4.475.935 6.563 0l30.187-13.526c5.309-2.379 11.306 1.505 11.306 7.323z" fill="#eaf6ff"/><path d="m435.093 19.114v473.76c0 5.82-6 9.7-11.31 7.32l-13.77-6.17c.05-.37.08-.76.08-1.15v-473.76c0-.39-.03-.78-.08-1.15l13.77-6.17c5.31-2.38 11.31 1.5 11.31 7.32z" fill="#d8ecfe"/><path d="m377.634 68.661-66.393 57.498c-1.481 1.282-.574 3.715 1.385 3.715h21.97c1.564 0 2.588 1.639 1.901 3.045l-20.432 41.79c-2.024 4.139 3.088 8.073 6.571 5.057l66.393-57.498c1.481-1.282.574-3.715-1.385-3.715h-21.97c-1.564 0-2.588-1.639-1.901-3.045l20.431-41.79c2.025-4.139-3.087-8.073-6.57-5.057z" fill="#ffc344"/></g><g><path d="m210.142 60.096c-4.142 0-7.5 3.357-7.5 7.5v52.244c0 3.65 2.629 6.771 6.227 7.391 3.393.331 12.329.088 19.625.109 4.142-.023 7.481-3.4 7.458-7.542-.022-4.143-3.405-7.483-7.542-7.458-3.68.021-7.562.036-10.768.042v-44.786c0-4.143-3.358-7.5-7.5-7.5z"/><path d="m189.642 119.884v-52.288c-.344-9.931-14.659-9.923-15 0v52.288c.344 9.931 14.66 9.923 15 0z"/><path d="m137.416 60.096h-15.188c-4.142 0-7.5 3.357-7.5 7.5v52.288c0 1.995.795 3.907 2.208 5.315 1.413 1.407 3.331 2.193 5.325 2.185.001 0 13.96-.062 17.808-.062 19.893.007 29.063-24.97 14.163-37.809 7.773-12.519-2.003-29.711-16.816-29.417zm0 15c5.976.158 5.974 8.908 0 9.063-1.101 0-3.162.006-5.419.014h-2.269v-9.077zm2.652 37.227c-1.924 0-6.366.016-10.341.03v-13.172c.769-.003 1.543-.006 2.297-.008h8.044c8.69.277 8.685 12.875 0 13.15z"/><path d="m256.452 60.096c-4.142 0-7.5 3.357-7.5 7.5v52.244c0 3.65 2.629 6.771 6.227 7.391 3.393.331 12.329.088 19.625.109 4.142-.023 7.481-3.4 7.458-7.542-.022-4.143-3.405-7.483-7.542-7.458-3.68.021-7.562.036-10.768.042v-44.786c0-4.143-3.358-7.5-7.5-7.5z"/><path d="m387.559 62.562c-4.47-3.439-10.57-3.262-14.833.43l-66.394 57.499c-3.066 2.655-4.131 6.827-2.714 10.628 1.417 3.8 4.953 6.256 9.009 6.256h13.344l-16.643 34.04c-2.478 5.067-1.086 11.01 3.385 14.45 4.461 3.433 10.563 3.268 14.833-.43l66.394-57.499c3.066-2.655 4.131-6.827 2.714-10.627-1.417-3.801-4.954-6.257-9.01-6.257h-13.343l16.643-34.04c2.478-5.068 1.086-11.01-3.385-14.45zm-57.714 101.039 13.391-27.389c1.467-3 1.287-6.481-.481-9.313-1.768-2.833-4.818-4.524-8.157-4.524h-7.527l43.358-37.55-13.392 27.391c-1.466 3-1.285 6.482.483 9.314s4.817 4.522 8.156 4.522h7.528z"/><path d="m435.512 6.088c-4.437-2.874-9.968-3.3-14.792-1.137l-30.211 13.53c-.123.055-.267.054-.406-.01l-38.225-17.126c-4.034-1.795-8.653-1.794-12.678.007l-38.218 17.124c-.132.06-.286.06-.428-.004l-38.227-17.127c-4.024-1.791-8.639-1.79-12.677.007l-38.219 17.124c-.133.06-.286.06-.428-.004l-38.214-17.121c-4.022-1.801-8.642-1.802-12.689.001l-38.219 17.124c-.13.06-.275.06-.419-.004l-30.188-13.52c-4.826-2.165-10.357-1.738-14.794 1.136-4.436 2.873-7.084 7.743-7.084 13.028v418.26c.344 9.931 14.659 9.923 15 0v-418.26c0-.1 0-.284.238-.438.242-.154.413-.078.507-.037l30.168 13.511c4.037 1.824 8.674 1.826 12.714.01l38.194-17.113c.143-.063.31-.065.442-.007l38.201 17.116c4.043 1.817 8.679 1.815 12.711.004l38.195-17.113c.147-.065.31-.066.442-.007l38.202 17.116c4.043 1.817 8.679 1.815 12.712.004l38.206-17.119c.136-.061.302-.06.431-.001l38.201 17.116c4.049 1.819 8.686 1.817 12.701.004l30.192-13.521c.093-.04.264-.117.505.038.238.154.238.339.238.438v23.42c.344 9.931 14.659 9.923 15 0v-23.42c0-5.286-2.648-10.156-7.084-13.029z"/><path d="m435.096 70.036c-4.142 0-7.5 3.357-7.5 7.5v415.34c0 .1 0 .284-.238.438-.242.155-.413.078-.507.037l-30.168-13.511c-4.036-1.823-8.673-1.825-12.714-.01l-38.194 17.113c-.144.063-.311.064-.442.007l-38.201-17.116c-4.043-1.817-8.679-1.815-12.711-.004l-38.195 17.113c-.146.067-.309.068-.442.007l-38.202-17.116c-4.043-1.817-8.679-1.815-12.712-.004l-38.206 17.119c-.136.061-.302.06-.431.001l-38.201-17.116c-4.048-1.82-8.686-1.816-12.701-.004l-30.192 13.521c-.091.042-.262.118-.505-.038-.238-.154-.238-.339-.238-.438v-20.5c-.344-9.931-14.659-9.923-15 0v20.5c-.206 11.038 11.892 18.866 21.875 14.165l30.211-13.53c.123-.056.267-.054.406.01l38.226 17.127c4.031 1.794 8.651 1.794 12.678-.007l38.218-17.124c.133-.06.286-.06.428.004l38.226 17.127c4.023 1.79 8.638 1.79 12.677-.007l38.219-17.124c.133-.06.286-.06.428.004l38.213 17.121c4.021 1.8 8.641 1.802 12.689-.001l38.219-17.124c.13-.06.275-.06.419.004l30.188 13.52c9.987 4.705 22.084-3.129 21.877-14.164v-415.34c.003-4.142-3.355-7.5-7.497-7.5z"/><path d="m123.69 147.952c0 4.143 3.358 7.5 7.5 7.5h134.609c9.931-.344 9.923-14.659 0-15h-134.609c-4.142 0-7.5 3.358-7.5 7.5z"/><path d="m366.991 452.043c4.142 0 7.5-3.357 7.5-7.5v-4.203c24.674-7.068 27.725-41.912 3.015-50.238-6.81-2.407-14.342-5.316-18.57-8.631-1.334-1.047-1.913-3.44-1.438-5.957.236-1.254 1.34-5.445 5.63-6.737 8.762-2.643 16.03 2.379 16.429 2.662 3.323 2.427 7.986 1.725 10.444-1.585 2.47-3.325 1.776-8.022-1.549-10.492-.348-.259-5.814-4.23-13.96-5.752v-2.961c-.344-9.931-14.659-9.923-15 0v3.574c-.23.064-.458.12-.69.19-8.234 2.48-14.382 9.501-16.044 18.323-1.53 8.118 1.123 15.988 6.922 20.537 4.784 3.752 11.397 6.931 22.829 10.971 7.632 2.697 7.467 8.875 7.042 11.405-.862 5.129-5.176 10.671-12.611 10.721-7.288.066-9.552-.312-15.147-3.972-3.467-2.268-8.115-1.296-10.382 2.171-2.268 3.467-1.295 8.114 2.171 10.382 6.033 3.946 10.483 5.544 15.911 6.125v3.467c-.002 4.143 3.356 7.5 7.498 7.5z"/><path d="m122.227 228.24h29.508c9.931-.344 9.923-14.659 0-15h-29.508c-9.931.343-9.923 14.659 0 15z"/><path d="m177.642 220.74c0 4.143 3.358 7.5 7.5 7.5h204.623c9.931-.344 9.923-14.659 0-15h-204.623c-4.142 0-7.5 3.357-7.5 7.5z"/><path d="m122.227 288.24h29.508c9.931-.344 9.923-14.659 0-15h-29.508c-9.931.343-9.923 14.659 0 15z"/><path d="m389.765 273.24h-204.623c-9.931.344-9.923 14.659 0 15h204.623c9.931-.344 9.924-14.66 0-15z"/><path d="m122.227 258.24h29.508c9.931-.344 9.923-14.659 0-15h-29.508c-9.931.343-9.923 14.659 0 15z"/><path d="m389.765 243.24h-204.623c-9.931.344-9.923 14.659 0 15h204.623c9.931-.344 9.924-14.66 0-15z"/><path d="m122.227 318.24h29.508c9.931-.344 9.923-14.659 0-15h-29.508c-9.931.343-9.923 14.659 0 15z"/><path d="m397.265 310.74c0-4.143-3.358-7.5-7.5-7.5h-204.623c-9.931.344-9.923 14.659 0 15h204.623c4.142 0 7.5-3.358 7.5-7.5z"/><path d="m114.727 438.543c0 7.444 6.056 13.5 13.5 13.5h178.334c7.444 0 13.5-6.056 13.5-13.5v-81.895c0-7.444-6.056-13.5-13.5-13.5h-178.334c-7.444 0-13.5 6.056-13.5 13.5zm15-50.527h45.886v49.027h-45.886zm114.452 0v49.027h-53.565v-49.027zm15 49.027v-49.027h45.883v49.027zm45.883-78.894v14.867h-175.335v-14.867z"/></g></g></svg>