<svg xmlns="http://www.w3.org/2000/svg" id="Capa_1" viewBox="0 0 512 512"><g><g><path d="m149.334 128.827h-8.719c-4.493 0-8.399-3.32-8.867-7.788-1.32-12.612-11.999-22.854-25.408-22.854-.971 0-1.928.054-2.87.16-4.966.558-9.798-1.535-12.744-5.571-5.52-7.563-14.449-12.478-24.531-12.478-18.048 0-31.461 15.422-30.321 32.345.283 4.205-2.439 7.953-6.47 9.184-10.383 3.171-17.861 12.768-18.038 24.009-.225 14.268 11.849 25.944 26.119 25.944h111.849c11.861 0 21.475-9.615 21.475-21.475s-9.615-21.476-21.475-21.476z" fill="#d5e3f4"/><ellipse cx="171.243" cy="284.644" fill="#62dbfb" rx="163.743" ry="163.743" transform="matrix(.707 -.707 .707 .707 -151.118 204.457)"/><path d="m191.755 122.178c53.059 34.57 88.142 94.417 88.142 162.466s-35.084 127.896-88.142 162.466c80.751-10.092 143.231-78.981 143.231-162.466s-62.481-152.374-143.231-162.466z" fill="#01c0fa"/><path d="m108.891 168.853c5.889-7.22 16.367-8.634 23.959-3.235l3.559 2.531c2.626 1.867 6.202 1.628 8.557-.571l30.974-28.93c4.792-4.475 7.512-10.738 7.512-17.294-4.032-.297-8.103-.453-12.211-.453-54.11 0-102.082 26.252-131.895 66.708 4.94 2.535 10.06 4.206 15.02 4.229 11.147.052 11.99 19.953 11.508 31.763-.165 4.037 3.781 6.97 7.591 5.626l3.952-1.395c1.595-.563 3.359-.388 4.813.478l35.186 20.949c9.536 5.677 15.547 15.798 15.972 26.887l.503 13.142c.329 8.592 3.55 16.821 9.142 23.353l22.62 26.423c8.376 9.785 13.379 22.007 14.269 34.856l2.373 34.283c.452 6.524 8.372 9.486 12.993 4.858l24.864-24.9c5.404-5.412 9.157-12.249 10.819-19.714l7.861-35.294c2.549-11.443 9.954-21.209 20.285-26.751l18.697-10.03c9.051-4.856 8.721-17.945-.564-22.338l-10.327-4.887c-.43-.203-.846-.433-1.247-.689l-82.074-52.316c-7.337-4.677-16.873-3.988-23.463 1.694l-.969.835c-6.257 5.397-15.217 6.316-22.44 2.303l-27.683-15.379c-10.807-6.004-13.556-20.319-5.742-29.898z" fill="#09a76d"/><path d="m486.507 116.567c-13.759-13.14-32.117-18.199-49.414-15.504-10.978 1.711-20.142-5.784-20.894-16.868-1.019-15.02-8.134-29.639-21.127-39.825-21.324-16.718-52.139-15.329-71.872 3.241-3.745 3.524-6.872 7.419-9.399 11.564-2.662 4.366-8.042 6.359-12.751 4.365-15.313-6.485-33.686-2.915-45.387 10.175-5.326 5.958-8.533 13.069-9.681 20.417-.879 5.627-4.887 10.168-10.271 12.023-19.753 6.807-33.947 25.548-33.947 47.614 0 28.103 22.843 50.281 50.101 50.37 4.88.016 9.441 2.681 11.576 7.07 6.482 13.326 20.147 22.512 35.963 22.512 10.99 0 20.941-4.437 28.165-11.617 4.543-4.515 11.704-4.794 16.872-1.011 17.322 12.679 42.374 8.923 55.307-8.17 3.991-5.274 11.228-6.964 16.934-3.62 25.192 14.762 58.253 8.626 76.374-15.688 17.499-23.478 14.629-56.824-6.549-77.048z" fill="#d5e3f4"/><path d="m486.507 116.567c-13.759-13.14-32.117-18.199-49.414-15.504-10.978 1.711-20.142-5.784-20.894-16.868-1.019-15.021-8.134-29.639-21.127-39.825-14.124-11.073-32.408-14.195-48.881-9.65 96.705 66.402 132.316 134.239 83.252 180.114 22.748 6.76 48.427-.84 63.614-21.217 17.498-23.48 14.628-56.826-6.55-77.05z" fill="#b3ceec"/><path d="m141.027 414.212c-.603 0-1.201.015-1.794.044-4.829.236-9.525-1.314-13.267-4.375-1.114-.911-2.281-1.774-3.494-2.583-3.66-2.441-6.19-6.184-7.416-10.41-4.003-13.797-16.728-23.884-31.817-23.884-13.467 0-25.055 8.035-30.237 19.572-1.725 3.84-4.981 6.757-9.038 7.883-14.506 4.025-25.011 17.666-24.211 33.63.797 15.891 13.119 29.138 28.901 31.161 2.253.289 4.463.338 6.615.179 3.262-.241 6.478.831 8.986 2.932 8.096 6.781 19.021 10.94 31.044 10.94 13.754 0 26.068-5.445 34.355-14.031 2.58-2.673 6.141-4.248 9.853-4.096.504.021 1.011.031 1.521.031 16.234 0 29.394-10.519 29.394-23.496-.001-12.978-13.161-23.497-29.395-23.497z" fill="#d5e3f4"/><path d="m141.027 414.212c-.603 0-1.201.015-1.794.044-4.829.236-9.525-1.315-13.267-4.375-1.114-.912-2.281-1.774-3.494-2.583-3.66-2.441-6.19-6.185-7.416-10.41-4.003-13.797-16.728-23.884-31.817-23.884-3.89 0-7.614.689-11.081 1.92 57.843 44.04 54.349 83.539 8.779 102.302 4.513 1.339 9.339 2.074 14.361 2.074 13.754 0 26.068-5.445 34.355-14.031 2.58-2.673 6.141-4.248 9.853-4.096.504.021 1.011.031 1.521.031 16.234 0 29.394-10.519 29.394-23.496s-13.16-23.496-29.394-23.496z" fill="#b3ceec"/></g><g><path d="m491.62 111.143c-3.729-3.561-7.853-6.678-12.259-9.261-3.572-2.096-8.168-.898-10.262 2.673-2.096 3.573-.898 8.167 2.673 10.262 3.406 1.998 6.598 4.411 9.489 7.172 18.568 17.731 21.024 46.592 5.715 67.134-15.586 20.912-44.199 26.797-66.56 13.696-8.882-5.204-20.362-2.813-26.702 5.565-10.426 13.779-30.985 16.819-44.889 6.643-8.288-6.066-19.468-5.333-26.585 1.742-6.123 6.084-14.247 9.435-22.876 9.435-12.532 0-23.726-7.008-29.215-18.289-3.323-6.833-10.503-11.263-18.293-11.288-23.5-.076-42.619-19.305-42.619-42.864 0-18.281 11.609-34.564 28.886-40.518 8.104-2.793 13.942-9.672 15.236-17.954.963-6.166 3.681-11.898 7.861-16.574 9.26-10.361 24.077-13.68 36.866-8.265 8.097 3.43 17.381.33 22.074-7.366 2.232-3.66 4.969-7.026 8.135-10.005 17.015-16.011 43.709-17.215 62.096-2.799 10.852 8.509 17.34 20.734 18.269 34.426.511 7.541 3.886 14.166 9.504 18.655 5.559 4.444 12.669 6.259 20.022 5.114 1.309-.204 2.642-.358 3.963-.461 4.129-.318 7.219-3.924 6.899-8.054-.318-4.129-3.924-7.237-8.054-6.899-1.704.131-3.425.331-5.116.595-3.149.488-6.114-.223-8.351-2.01-2.294-1.833-3.68-4.658-3.904-7.954-1.202-17.729-9.942-34.209-23.978-45.214-24.17-18.95-59.261-17.369-81.628 3.68-4.144 3.9-7.73 8.313-10.663 13.12-.776 1.275-2.251 1.859-3.42 1.363-18.699-7.919-40.358-3.064-53.896 12.081-6.111 6.837-10.087 15.224-11.497 24.254-.434 2.778-2.466 5.112-5.304 6.089-10.425 3.593-19.315 9.977-25.966 18.136-9.822-2.1-23.916-3.801-36.053-3.801-11.159 0-22.068 1.086-32.638 3.134-3.601-16.33-18.948-27.556-35.972-25.634-2.294.267-4.476-.686-5.833-2.55-7.107-9.734-18.54-15.545-30.583-15.545-10.596 0-20.407 4.252-27.625 11.972-7.169 7.67-10.881 18.008-10.183 28.378.053.771-.559 1.311-1.178 1.502-13.74 4.196-23.118 16.676-23.335 31.048-.141 8.74 3.227 17.055 9.483 23.413 6.084 6.183 14.414 9.83 23.005 10.125-23.424 29.906-36.359 66.738-36.359 105.37 0 17.313 2.576 34.394 7.656 50.766 1.229 3.959 5.431 6.165 9.384 4.94 3.956-1.227 6.167-5.429 4.94-9.384-4.633-14.932-6.982-30.516-6.982-46.322 0-32.479 9.967-62.672 26.998-87.688 4.288 1.563 8.419 2.381 12.329 2.399.235.001.284.001.542.271 1.979 2.072 4.085 9.517 3.507 23.683-.179 4.39 1.822 8.568 5.352 11.175 3.523 2.603 8.095 3.286 12.225 1.826l3.157-1.113 34.458 20.515c7.381 4.394 11.983 12.143 12.312 20.728l.503 13.141c.392 10.235 4.276 20.157 10.937 27.939l22.616 26.418c7.277 8.502 11.71 19.33 12.483 30.493l2.373 34.279c.414 5.988 4.164 11.014 9.787 13.116 5.7 2.132 11.811.709 15.992-3.478l24.86-24.896c6.419-6.429 10.856-14.514 12.831-23.381l7.86-35.289c2.076-9.321 8.093-17.255 16.508-21.769l18.695-10.029c14.466-7.762 13.93-28.696-.902-35.722-12.733-6.031 1.085 2.601-92.812-57.429-10.197-6.519-23.222-5.565-32.388 2.339l-.969.836c-3.858 3.327-9.443 3.901-13.898 1.426l-27.679-15.376c-3.205-1.781-5.439-4.867-6.13-8.467-.691-3.599.241-7.293 2.558-10.133l5.584-6.845c3.38-4.142 9.442-4.962 13.798-1.862l3.561 2.532c5.506 3.913 13.084 3.405 18.019-1.203l30.971-28.927c4.261-3.979 7.285-9.076 8.794-14.625 3.065.363 6.115.818 9.146 1.36-3.06 7.088-4.738 14.85-4.738 22.904 0 31.802 25.825 57.759 57.569 57.862 2.11.007 4.016 1.126 4.855 2.85 8.019 16.486 24.381 26.728 42.701 26.728 7.226 0 14.207-1.614 20.538-4.659 5.003 15.456 7.544 31.584 7.544 48.072 0 83.966-66.587 152.662-149.728 156.083 2.32-19.958-17.481-35.031-38.87-33.975-5.687.297-8.053-2.919-12.233-5.705-2.045-1.364-3.599-3.587-4.374-6.26-5.003-17.246-21.046-29.29-39.014-29.29-13.447 0-25.866 6.691-33.371 17.497-5.471-6.741-10.387-13.922-14.656-21.458-2.041-3.602-6.618-4.871-10.221-2.828-3.604 2.041-4.87 6.617-2.828 10.221 5.007 8.839 10.823 17.237 17.332 25.069-17.051 5.892-28.141 22.163-27.224 40.449.985 19.639 15.886 35.713 35.432 38.219 7.775.996 9.056-.828 11.739 1.421 9.77 8.181 22.503 12.688 35.854 12.688 15.248 0 29.735-5.948 39.747-16.321 2.112-2.188 3.994-1.773 5.976-1.773 12.263 0 23.141-5.058 29.853-12.816.119 0 .237.004.357.004 94.415 0 171.227-76.812 171.227-171.227 0-19.632-3.288-38.808-9.761-57.086.042-.042.087-.08.129-.122 1.85-1.839 4.86-1.956 7.154-.278 20.716 15.163 50.192 10.813 65.708-9.695 1.755-2.319 4.834-3.039 7.161-1.675 28.964 16.974 66.009 9.376 86.168-17.674 19.831-26.608 16.657-63.985-7.382-86.941zm-454.135 53.129c-4.993 0-9.892-2.068-13.442-5.675-3.414-3.47-5.253-7.963-5.177-12.659.119-7.844 5.23-14.65 12.73-16.941 7.445-2.286 12.277-9.224 11.75-16.862-.42-6.231 1.831-12.469 6.175-17.116 4.351-4.654 10.271-7.217 16.669-7.217 7.271 0 14.176 3.511 18.463 9.382 4.5 6.185 12.036 9.486 19.646 8.618 9.382-1.061 17.843 5.193 19.696 14.224-28.563 8.207-54.085 23.667-74.443 44.247h-12.067zm133.314-31.109-30.541 28.525-3.079-2.19c-10.772-7.66-25.757-5.638-34.113 4.606l-5.583 6.844c-5.131 6.29-7.196 14.47-5.665 22.442s6.479 14.806 13.575 18.748l27.679 15.377c9.928 5.514 22.377 4.238 30.976-3.179.1-.044 7.034-7.278 15.5-1.885 85.202 54.275 83.567 53.988 94.459 58.339 3.725 1.763 3.858 7 .226 8.948l-18.694 10.029c-12.263 6.579-21.031 18.142-24.057 31.725l-7.86 35.289c-1.355 6.085-4.4 11.633-8.804 16.044l-24.893 24.943c-.045.004-.147-.033-.172-.122l-2.373-34.279c-.994-14.354-6.694-28.279-16.052-39.21l-22.616-26.418c-4.473-5.225-7.081-11.887-7.344-18.76l-.503-13.141c-.524-13.684-7.861-26.035-19.627-33.04l-35.18-20.944c-3.377-2.012-7.438-2.417-11.145-1.107l-1.473.519c.331-15.542-2.266-26.309-7.73-32.028-3.049-3.19-6.961-4.888-11.315-4.909-.851-.004-1.738-.083-2.66-.231 28.679-34.035 71.594-55.699 119.481-55.699 1.016 0 2.03.026 3.045.045-.857 1.754-2.013 3.365-3.462 4.719zm-31.007 320.467c-5.76-.228-11.413 2.092-15.552 6.381-7.201 7.46-17.755 11.739-28.956 11.739-9.836 0-19.149-3.263-26.224-9.188-7.639-6.396-14.009-4.095-19.46-4.799-12.137-1.555-21.75-11.914-22.361-24.094-.606-12.095 7.093-22.796 18.724-26.024 6.147-1.706 11.203-6.093 13.872-12.035 4.132-9.199 13.314-15.142 23.393-15.142 11.335 0 21.455 7.596 24.61 18.471 1.76 6.065 5.473 11.235 10.456 14.558 3.449 2.302 9.626 8.762 21.29 8.209.471-.023.946-.035 1.425-.035 11.867 0 21.892 7.324 21.892 15.993-.002 9.628-11.645 16.439-23.109 15.966z"/><path d="m398.693 310.752-5.258 3.642v-53.316c0-4.142-3.357-7.499-7.499-7.499s-7.499 3.357-7.499 7.499v53.316l-5.258-3.642c-3.407-2.359-8.077-1.51-10.434 1.894-2.359 3.405-1.511 8.076 1.894 10.435l17.027 11.792c1.284.89 2.777 1.335 4.27 1.335s2.986-.445 4.27-1.335l17.027-11.792c3.405-2.359 4.253-7.03 1.894-10.435-2.357-3.404-7.028-4.253-10.434-1.894z"/><path d="m458.148 348.178-5.258 3.642v-53.316c0-4.142-3.357-7.499-7.499-7.499s-7.499 3.357-7.499 7.499v53.316l-5.258-3.642c-3.406-2.359-8.076-1.51-10.434 1.894-2.359 3.405-1.511 8.076 1.894 10.435l17.027 11.792c1.284.89 2.777 1.335 4.27 1.335s2.986-.445 4.27-1.335l17.027-11.792c3.405-2.359 4.253-7.03 1.894-10.435-2.357-3.404-7.028-4.254-10.434-1.894z"/><path d="m294.728 117.084c3.813 0 7.488 1.122 10.63 3.244 3.432 2.317 8.093 1.416 10.412-2.016 2.318-3.432 1.416-8.094-2.016-10.412-5.631-3.803-12.21-5.814-19.026-5.814-18.759 0-34.021 15.262-34.021 34.02 0 18.759 15.262 34.021 34.021 34.021 9.013 0 16.9-3.553 22.45-10.162 2.665-3.171 2.254-7.901-.918-10.565-3.17-2.667-7.901-2.254-10.565.918-8.936 10.623-29.99 2.879-29.99-14.212 0-10.489 8.534-19.022 19.023-19.022z"/><path d="m426.334 151.903c-7.217 10.312-11.52 15.946-13.831 18.973-2.948 3.859-4.895 6.408-3.659 10.421.731 2.377 2.597 4.272 4.985 5.066 2.603.868 16.447.575 25.768.457 4.142-.052 7.457-3.451 7.404-7.592-.051-4.11-3.398-7.405-7.496-7.405-.032 0-.064 0-.096.001-2.955.037-6.038.065-8.94.084 6.003-8.194 14.595-18.695 14.595-27.4 0-10.586-8.612-19.2-19.199-19.2-9.153 0-17.076 6.513-18.839 15.485-.799 4.064 1.848 8.006 5.912 8.804 4.063.799 8.006-1.848 8.804-5.912.385-1.958 2.119-3.379 4.122-3.379 2.196 0 4.003 1.694 4.186 3.843l-.096.748c-.379 1.422-1.321 3.722-3.62 7.006z"/><path d="m361.337 102.086c-18.759 0-34.021 15.262-34.021 34.02 0 18.759 15.262 34.021 34.021 34.021s34.021-15.262 34.021-34.021c0-18.758-15.262-34.02-34.021-34.02zm0 53.043c-10.489 0-19.023-8.534-19.023-19.023s8.534-19.022 19.023-19.022 19.023 8.533 19.023 19.022-8.534 19.023-19.023 19.023z"/></g></g><g/><g/><g/><g/><g/><g/><g/><g/><g/><g/><g/><g/><g/><g/><g/></svg>