<?xml version="1.0" encoding="UTF-8"?><svg xmlns="http://www.w3.org/2000/svg" id="Layer_2" data-name="Layer 2" viewBox="0 0 56.86 41.43"><defs><style> .cls-1 { fill: #fbc218; } .cls-2, .cls-3 { fill: #fdb716; } .cls-3 { fill-rule: evenodd; } .cls-4 { fill: #11375c; } .cls-5 { fill: #434343; } </style></defs><g id="Layer_2-2" data-name="Layer 2"><g><g><path class="cls-4" d="M.24,29.2C.08,29.2,0,29.12,0,28.96v-.94c0-.13.06-.23.16-.29l3.21-1.9c.41-.25.52-.35.52-.57,0-.3-.14-.39-.53-.39h-1.44c-.35,0-.48.09-.48.55v.03c0,.16-.08.24-.24.24H.24C.08,25.69,0,25.65,0,25.58v-.11C0,24.21.53,23.49,1.92,23.49h1.48c1.28,0,1.92.55,1.92,1.65,0,.49-.06.79-.35,1.08-.14.15-.29.28-.45.38-.16.11-.4.25-.73.44l-1.38.79h2.65c.16,0,.24.08.24.24v.89c0,.16-.08.24-.24.24H.24Z"/><path class="cls-4" d="M9.79,29.2c-.16,0-.24-.08-.24-.24v-.86h-3.46c-.16,0-.24-.08-.24-.24v-.88c0-.12.04-.22.13-.3l3.45-3.08c.08-.07.18-.11.3-.11h.97c.16,0,.24.08.24.24v3.07h.5c.16,0,.24.08.24.24v.82c0,.16-.08.24-.24.24h-.5v.86c0,.16-.08.24-.24.24h-.9ZM7.59,26.8h1.96v-1.72l-1.96,1.72Z"/><path class="cls-4" d="M17.93,25.79c0,1.01-.36,1.67-1.07,1.95l.82,1.17c.11.17.04.29-.15.29h-1.09c-.14,0-.23-.06-.29-.16l-.71-1.14h-1.55v1.06c0,.16-.08.24-.24.24h-.96c-.16,0-.24-.08-.24-.24v-5.23c0-.16.08-.24.24-.24h2.94c1.55,0,2.31.71,2.31,2.14v.15ZM13.87,24.86v1.68h1.62c.69,0,.99-.13.99-.77v-.13c0-.64-.28-.78-.99-.78h-1.62Z"/><path class="cls-4" d="M21.03,29.2c-.16,0-.24-.08-.24-.24v-5.23c0-.16.08-.24.24-.24h4.35c.16,0,.24.08.24.24v.89c0,.16-.08.24-.24.24h-3.16v.84h1.92c.16,0,.24.08.24.24v.76c0,.16-.08.24-.24.24h-1.92v.87h3.16c.16,0,.24.08.24.24v.89c0,.16-.08.24-.24.24h-4.35Z"/><path class="cls-4" d="M26.67,29.2c-.16,0-.24-.08-.24-.24v-5.23c0-.16.08-.24.24-.24h.93c.12,0,.22.05.3.15l2.63,3.36v-3.26c0-.16.08-.24.24-.24h.96c.16,0,.24.08.24.24v5.23c0,.16-.08.24-.24.24h-.93c-.12,0-.22-.05-.3-.15l-2.63-3.34v3.25c0,.16-.08.24-.24.24h-.96Z"/><path class="cls-4" d="M33.23,29.2c-.16,0-.24-.08-.24-.24v-5.23c0-.16.08-.24.24-.24h4.35c.16,0,.24.08.24.24v.89c0,.16-.08.24-.24.24h-3.16v.84h1.92c.16,0,.24.08.24.24v.76c0,.16-.08.24-.24.24h-1.92v.87h3.16c.16,0,.24.08.24.24v.89c0,.16-.08.24-.24.24h-4.35Z"/><path class="cls-4" d="M44.13,25.79c0,1.01-.36,1.67-1.07,1.95l.82,1.17c.11.17.04.29-.15.29h-1.09c-.14,0-.23-.06-.29-.16l-.71-1.14h-1.55v1.06c0,.16-.08.24-.24.24h-.96c-.16,0-.24-.08-.24-.24v-5.23c0-.16.08-.24.24-.24h2.94c1.55,0,2.31.71,2.31,2.14v.15ZM40.07,24.86v1.68h1.62c.69,0,.99-.13.99-.77v-.13c0-.64-.28-.78-.99-.78h-1.62Z"/><path class="cls-4" d="M46.71,29.2c-1.25,0-1.92-.77-1.92-1.97v-1.77c0-1.21.66-1.97,1.92-1.97h1.89c1.17,0,1.82.63,1.91,1.68,0,.17-.07.25-.24.25h-.96c-.14,0-.23-.08-.25-.24-.06-.25-.18-.31-.46-.31h-1.89c-.35,0-.48.09-.48.55v1.87c0,.45.15.54.48.54h1.89c.32,0,.48-.1.48-.54v-.19h-1.04c-.16,0-.24-.08-.24-.24v-.75c0-.16.08-.24.24-.24h2.23c.16,0,.24.08.24.24v1.13c0,1.2-.66,1.97-1.92,1.97h-1.89Z"/><path class="cls-4" d="M53.3,29.2c-.16,0-.24-.08-.24-.24v-1.34l-2.31-3.84c-.1-.17-.03-.29.16-.29h1.11c.14,0,.23.06.29.17l1.47,2.61,1.49-2.61c.06-.11.15-.17.29-.17h1.09c.19,0,.26.12.16.29l-2.31,3.84v1.34c0,.16-.08.24-.24.24h-.96Z"/></g><rect class="cls-2" y="30.94" width="56.86" height="6.49" rx="2.28" ry="2.28"/><g><path class="cls-4" d="M8.73,35.68c-.44,0-.88-.15-1.23-.46l.38-.45c.26.21.53.35.86.35.26,0,.42-.1.42-.27h0c0-.17-.1-.25-.58-.38-.58-.15-.96-.31-.96-.88h0c0-.53.42-.88,1.01-.88.42,0,.78.13,1.08.37l-.33.48c-.26-.18-.51-.29-.75-.29s-.37.11-.37.25h0c0,.2.12.26.62.39.59.15.92.36.92.87h0c0,.58-.44.91-1.06.91Z"/><path class="cls-4" d="M12.17,35.69c-.89,0-1.53-.67-1.53-1.49h0c0-.83.65-1.5,1.54-1.5s1.53.67,1.53,1.49h0c0,.83-.65,1.51-1.54,1.51ZM13.04,34.19c0-.5-.36-.91-.88-.91s-.87.41-.87.9h0c0,.5.36.92.88.92s.87-.41.87-.9h0Z"/><path class="cls-4" d="M14.69,35.64v-2.89h.64v2.32h1.44v.58h-2.08Z"/><path class="cls-4" d="M19.82,35.64l-.26-.65h-1.22l-.26.65h-.65l1.24-2.92h.59l1.24,2.92h-.67ZM18.94,33.49l-.38.94h.77l-.38-.94Z"/><path class="cls-4" d="M23.1,35.64l-.62-.93h-.5v.93h-.64v-2.89h1.32c.68,0,1.09.36,1.09.96h0c0,.48-.25.77-.62.91l.71,1.03h-.74ZM23.11,33.73c0-.27-.19-.41-.5-.41h-.63v.83h.64c.31,0,.49-.17.49-.41h0Z"/><path class="cls-4" d="M28.35,35.7l-.33-.34c-.24.19-.51.32-.85.32-.55,0-.97-.32-.97-.84,0-.37.2-.63.56-.8-.14-.2-.2-.38-.2-.58,0-.4.32-.76.88-.76.49,0,.81.32.81.73,0,.39-.25.62-.61.76l.38.38c.09-.15.19-.32.28-.5l.47.26c-.11.2-.24.42-.38.61l.43.43-.47.33ZM27.1,34.43c-.19.1-.27.24-.27.38,0,.21.17.34.41.34.14,0,.29-.06.42-.17l-.55-.56ZM27.42,33.19c-.17,0-.28.12-.28.3,0,.13.05.23.17.36.25-.1.38-.2.38-.39,0-.17-.11-.27-.27-.27Z"/><path class="cls-4" d="M31.35,35.64v-2.89h.64v2.32h1.44v.58h-2.08Z"/><path class="cls-4" d="M34.35,35.64v-2.89h.64v2.89h-.64Z"/><path class="cls-4" d="M37.52,35.69c-.9,0-1.52-.63-1.52-1.49h0c0-.83.64-1.5,1.52-1.5.52,0,.84.14,1.14.4l-.4.48c-.22-.19-.42-.29-.76-.29-.46,0-.83.41-.83.9h0c0,.54.36.93.88.93.23,0,.44-.06.6-.17v-.41h-.64v-.55h1.26v1.26c-.3.25-.71.46-1.24.46Z"/><path class="cls-4" d="M41.59,35.64v-1.16h-1.17v1.16h-.64v-2.89h.64v1.15h1.17v-1.15h.64v2.89h-.64Z"/><path class="cls-4" d="M44.65,33.33v2.31h-.64v-2.31h-.88v-.59h2.4v.59h-.88Z"/><path class="cls-4" d="M47.39,35.68c-.44,0-.88-.15-1.23-.46l.38-.45c.26.21.53.35.86.35.26,0,.42-.1.42-.27h0c0-.17-.1-.25-.58-.38-.58-.15-.96-.31-.96-.88h0c0-.53.42-.88,1.01-.88.42,0,.78.13,1.08.37l-.33.48c-.26-.18-.51-.29-.75-.29s-.37.11-.37.25h0c0,.2.12.26.62.39.59.15.92.36.92.87h0c0,.58-.44.91-1.06.91Z"/></g><g><path class="cls-5" d="M11.55,39.25h1.26l-.05.18h-1.06l-.16.6h.95l-.05.18h-.95l-.17.62h1.08l-.05.18h-1.27l.47-1.76Z"/><path class="cls-5" d="M13.03,39.72h.19l-.06.21c.12-.13.25-.24.45-.24.25,0,.42.16.42.4,0,.06-.02.13-.03.2l-.19.72h-.19l.2-.74s.02-.1.02-.15c0-.17-.11-.27-.29-.27-.2,0-.4.17-.47.42l-.2.74h-.19l.35-1.3Z"/><path class="cls-5" d="M14.5,40.49c0,.24.15.39.39.39.17,0,.28-.06.4-.15l.1.13c-.13.11-.28.19-.51.19-.34,0-.58-.22-.58-.55,0-.4.32-.81.76-.81.33,0,.5.23.5.5,0,.09-.02.17-.04.25h-1.02s0,.04,0,.05ZM15.37,40.29s.01-.05.01-.1c0-.18-.1-.33-.33-.33-.26,0-.45.2-.52.44h.84Z"/><path class="cls-5" d="M16.06,39.72h.19l-.09.34c.16-.23.36-.38.62-.36l-.06.21h-.01c-.29,0-.57.21-.67.6l-.14.51h-.19l.35-1.3Z"/><path class="cls-5" d="M16.64,41.2l.12-.14c.14.12.32.2.51.2.16,0,.29-.05.37-.13.08-.08.13-.18.16-.31l.04-.13c-.13.13-.29.23-.5.23-.27,0-.53-.18-.53-.49,0-.43.37-.74.73-.74.28,0,.41.16.48.31l.08-.28h.19l-.3,1.12c-.06.2-.12.32-.21.41-.12.12-.28.18-.5.18-.24,0-.48-.09-.64-.23ZM17.95,40.23c0-.19-.15-.37-.4-.37-.28,0-.54.23-.54.54,0,.23.18.35.38.35.29,0,.56-.26.56-.52Z"/><path class="cls-5" d="M18.74,39.72h.19l-.35,1.3h-.19l.35-1.3ZM18.86,39.22h.22l-.06.21h-.22l.06-.21Z"/><path class="cls-5" d="M18.98,40.89l1.11-1.01h-.81l.04-.16h1.09l-.04.12-1.11,1.01h.85l-.05.16h-1.13l.04-.12Z"/><path class="cls-5" d="M20.79,39.72h.19l-.35,1.3h-.19l.35-1.3ZM20.91,39.22h.22l-.06.21h-.22l.06-.21Z"/><path class="cls-5" d="M21.44,39.72h.19l-.06.21c.12-.13.25-.24.45-.24.25,0,.42.16.42.4,0,.06-.02.13-.03.2l-.19.72h-.19l.2-.74s.02-.1.02-.15c0-.17-.11-.27-.29-.27-.2,0-.4.17-.47.42l-.2.74h-.19l.35-1.3Z"/><path class="cls-5" d="M22.56,41.2l.12-.14c.14.12.31.2.51.2.16,0,.29-.05.37-.13.08-.08.13-.18.16-.31l.04-.13c-.13.13-.29.23-.5.23-.27,0-.53-.18-.53-.49,0-.43.37-.74.73-.74.28,0,.41.16.48.31l.08-.28h.19l-.3,1.12c-.06.2-.12.32-.21.41-.12.12-.28.18-.5.18-.24,0-.48-.09-.64-.23ZM23.87,40.23c0-.19-.15-.37-.4-.37-.28,0-.54.23-.54.54,0,.23.18.35.38.35.29,0,.56-.26.56-.52Z"/><path class="cls-5" d="M25.05,40.69c0-.29.24-.47.58-.47.17,0,.34.04.46.07v-.03s.03-.09.03-.12c0-.17-.12-.26-.35-.26-.14,0-.25.03-.37.07l-.03-.16c.13-.05.26-.08.43-.08.33,0,.51.15.51.4,0,.05,0,.12-.03.18l-.2.74h-.19l.05-.2c-.12.14-.28.23-.49.23-.22,0-.41-.13-.41-.36ZM26.04,40.51l.03-.09c-.11-.03-.26-.06-.42-.06-.23,0-.39.12-.39.3,0,.14.11.23.28.23.22,0,.45-.16.51-.39Z"/><path class="cls-5" d="M27.53,40.73l-.08.29h-.19l.49-1.84h.19l-.21.76c.13-.14.29-.25.49-.25.29,0,.52.22.52.55,0,.46-.35.81-.73.81-.27,0-.42-.15-.49-.32ZM28.54,40.26c0-.24-.15-.4-.37-.4-.29,0-.58.29-.58.61,0,.23.16.41.4.41.31,0,.54-.29.54-.62Z"/><path class="cls-5" d="M29.26,39.72h.19l-.09.34c.16-.23.36-.38.62-.36l-.06.21h-.01c-.29,0-.57.21-.67.6l-.14.51h-.19l.35-1.3Z"/><path class="cls-5" d="M30.3,39.72h.19l-.35,1.3h-.19l.35-1.3ZM30.42,39.22h.22l-.06.21h-.22l.06-.21Z"/><path class="cls-5" d="M30.52,41.2l.12-.14c.14.12.32.2.51.2.16,0,.29-.05.37-.13.08-.08.13-.18.16-.31l.04-.13c-.13.13-.29.23-.5.23-.27,0-.53-.18-.53-.49,0-.43.37-.74.73-.74.28,0,.41.16.48.31l.08-.28h.19l-.3,1.12c-.06.2-.12.32-.21.41-.12.12-.28.18-.5.18-.24,0-.48-.09-.64-.23ZM31.83,40.23c0-.19-.15-.37-.4-.37-.28,0-.54.23-.54.54,0,.23.18.35.38.35.29,0,.56-.26.56-.52Z"/><path class="cls-5" d="M32.75,39.18h.19l-.2.75c.12-.13.25-.24.45-.24.25,0,.42.16.42.4,0,.06-.02.13-.03.2l-.19.72h-.19l.2-.74s.02-.1.02-.15c0-.17-.11-.27-.29-.27-.2,0-.4.17-.47.42l-.2.74h-.19l.49-1.84Z"/><path class="cls-5" d="M33.95,40.78s0-.1.02-.14l.2-.76h-.18l.04-.17h.18l.11-.39h.19l-.11.39h.41l-.04.17h-.41l-.2.75s0,.07,0,.1c0,.09.07.13.18.13.06,0,.12-.01.19-.04l-.05.18c-.07.03-.13.04-.21.04-.19,0-.32-.09-.32-.26Z"/><path class="cls-5" d="M35.06,40.49c0,.24.15.39.39.39.17,0,.28-.06.4-.15l.1.13c-.13.11-.28.19-.51.19-.34,0-.58-.22-.58-.55,0-.4.32-.81.76-.81.33,0,.5.23.5.5,0,.09-.02.17-.04.25h-1.02s0,.04,0,.05ZM35.92,40.29s.01-.05.01-.1c0-.18-.1-.33-.33-.33-.26,0-.45.2-.52.44h.84Z"/><path class="cls-5" d="M36.62,39.72h.19l-.09.34c.16-.23.36-.38.62-.36l-.06.21h-.01c-.29,0-.57.21-.67.6l-.14.51h-.19l.35-1.3Z"/><path class="cls-5" d="M38.41,39.89h-.18l.04-.17h.18l.04-.16c.07-.26.22-.38.45-.38.1,0,.19.02.26.06l-.05.17c-.08-.04-.14-.05-.21-.05-.12,0-.22.08-.26.25l-.03.13h.43l-.05.17h-.42l-.3,1.13h-.19l.3-1.13Z"/><path class="cls-5" d="M39.09,40.64c0-.06.01-.13.03-.2l.19-.73h.19l-.2.74s-.02.1-.02.15c0,.17.11.27.29.27.2,0,.41-.17.47-.42l.2-.73h.19l-.35,1.3h-.19l.06-.21c-.12.13-.26.24-.46.24-.25,0-.41-.16-.41-.4Z"/><path class="cls-5" d="M40.68,40.78s0-.1.02-.14l.2-.76h-.18l.04-.17h.18l.11-.39h.19l-.11.39h.41l-.04.17h-.41l-.2.75s0,.07,0,.1c0,.09.07.13.18.13.06,0,.12-.01.19-.04l-.05.18c-.07.03-.13.04-.21.04-.19,0-.32-.09-.32-.26Z"/><path class="cls-5" d="M41.64,40.64c0-.06.01-.13.03-.2l.19-.73h.19l-.2.74s-.02.1-.02.15c0,.17.11.27.29.27.2,0,.41-.17.47-.42l.2-.73h.19l-.35,1.3h-.19l.06-.21c-.12.13-.26.24-.46.24-.25,0-.41-.16-.41-.4Z"/><path class="cls-5" d="M43.43,39.72h.19l-.09.34c.16-.23.36-.38.62-.36l-.06.21h-.01c-.28,0-.57.21-.67.6l-.14.51h-.19l.35-1.3Z"/><path class="cls-5" d="M44.35,40.49c0,.24.15.39.39.39.17,0,.28-.06.4-.15l.1.13c-.13.11-.28.19-.51.19-.34,0-.58-.22-.58-.55,0-.4.32-.81.76-.81.33,0,.5.23.5.5,0,.09-.02.17-.04.25h-1.02s0,.04,0,.05ZM45.22,40.29s.01-.05.01-.1c0-.18-.1-.33-.33-.33-.26,0-.45.2-.52.44h.84Z"/></g><g><rect class="cls-1" x="47.85" y="25.92" width="2.61" height="1.13" rx=".16" ry=".16"/><path class="cls-4" d="M50.3,25.97c.05,0,.1.04.1.1v.82c0,.05-.04.1-.1.1h-2.3c-.05,0-.1-.04-.1-.1v-.82c0-.05.04-.1.1-.1h2.3M50.3,25.86h-2.3c-.12,0-.21.09-.21.21v.82c0,.12.09.21.21.21h2.3c.12,0,.21-.09.21-.21v-.82c0-.12-.09-.21-.21-.21h0Z"/></g><g><rect class="cls-4" x="18.76" width="8.89" height="8.89" rx="2.28" ry="2.28"/><g><path class="cls-3" d="M38.03,4.76c-.16,0-.28-.12-.29-.28h-2.91v4.25c.27-.07.52-.17.77-.29l-.03-.05c-.08-.14-.03-.32.11-.4.14-.08.32-.03.4.11l.03.05c.25-.17.48-.36.7-.57.2-.2.38-.42.54-.65l-.05-.03c-.14-.08-.19-.26-.1-.4.08-.14.26-.19.4-.1l.05.03c.26-.51.42-1.07.46-1.67h-.06ZM29.56,4.48c-.03.13-.15.22-.28.22h-.06c.03.6.19,1.16.44,1.68l.05-.03c.14-.08.32-.03.4.11.08.14.03.32-.11.4l-.05.03c.32.49.74.91,1.22,1.23l.03-.05c.08-.14.26-.19.4-.1.14.08.19.26.1.4l-.03.05c.51.26,1.07.42,1.67.46v-.06c0-.16.13-.29.29-.29.16,0,.29.13.29.29v.06c.25-.01.49-.05.72-.1v-4.29h-5.08ZM33.97.01v.05c0,.16-.13.29-.29.29-.16,0-.29-.13-.29-.29V0c-.6.03-1.16.19-1.68.44l.03.05c.08.14.03.32-.11.4s-.32.03-.4-.11l-.03-.05c-.25.17-.48.36-.7.57-.2.2-.38.42-.54.65l.05.03c.14.08.19.26.1.4-.08.14-.26.19-.4.1l-.05-.03c-.26.51-.42,1.07-.46,1.67h.06c.12,0,.22.07.26.18h5.1V.11c-.22-.05-.44-.08-.67-.1Z"/><path class="cls-3" d="M38.09,4.18h-.06c-.1,0-.18.05-.24.12h-2.97V.16c.28.08.56.18.82.31l-.03.05c-.08.14-.03.32.1.4.14.08.32.03.4-.1l.03-.05c.23.16.45.34.65.54.21.21.4.44.57.69l-.05.03c-.14.08-.19.26-.11.4.08.14.26.19.4.11l.05-.03c.25.51.4,1.08.44,1.68Z"/></g><rect class="cls-4" x="18.76" y="10.71" width="8.89" height="8.89" rx="2.28" ry="2.28"/><rect class="cls-4" x="29.21" y="10.71" width="8.89" height="8.89" rx="2.28" ry="2.28"/></g></g></g></svg>