<svg xmlns="http://www.w3.org/2000/svg" id="Capa_1" height="512" viewBox="0 0 512 512" width="512"><g><g><path d="m392.5 401.5h-268l-4-1c-5.523 0-10-4.477-10-10v-27l291 1 1 13v14c0 5.523-4.477 10-10 10z" fill="#b6c4cf"/><path d="m402.5 362.5-146.5-3-146.5 3v29c0 5.523 4.477 10 10 10h5v-21c0-1.657 1.343-3 3-3h275z" fill="#9facba"/><g fill="#b2e5fb"><path d="m242 498.5v-135h28l1 14v112l-1 9c0 2.761-2.239 5-5 5h-18c-2.761 0-5-2.239-5-5z"/><path d="m499.5 474.5h-155.5c-1.657 0-3-1.343-3-3v-94l-1-14h-28v111c0 16.569 12.431 29 29 29h157.5c2.761 0 5-1.239 5-4l1-10v-10c0-2.761-2.239-5-5-5z"/><path d="m13.5 503.5h156.5c11.102 0 21.796-5.031 26.984-13.996 2.554-4.414 4.016-9.538 4.016-15.004v-97l-1-14h-28v108c0 1.657-2.343 3-4 3h-145.198l-9.302 1c-2.761 0-5 2.239-5 5v18c0 2.761 2.239 5 5 5z"/></g><path d="m271 377.5v-15l-15-2-15 2v15 122c0 2.761 2.239 5 5 5h20c2.761 0 5-2.239 5-5v-10h-12c-1.657 0-3-1.343-3-3v-106c0-1.657 1.343-3 3-3z" fill="#98e0f9"/><path d="m342.92 489.5c-9.345 0-16.92-7.575-16.92-16.92v-92.08c0-1.657 1.343-3 3-3h12v-15l-15-2-15 2v15 97c0 16.569 13.431 30 30 30h158.5c2.761 0 5-2.239 5-5v-10z" fill="#98e0f9"/><g fill="#98e0f9"><path d="m201 362.5-14.964-2-15.036 2v15 94c0 1.494-1.095 2.723-2.525 2.952 9.839 0 17.809-7.989 17.785-17.828l-.182-76.117c-.004-1.66 1.34-3.007 3-3.007h11.922z"/><path d="m22.562 486.44.241-11.94h-10.303c-2.761 0-5 2.239-5 5v20c0 2.761 2.239 5 5 5h158.5c11.102 0 20.789-6.036 25.977-15h-171.416c-1.68 0-3.033-1.38-2.999-3.06z"/></g><path d="m427.5 361.5h-343c-16.569 0-30-13.431-30-30v-293c0-11.102 5.031-21.796 13.996-26.984 4.413-2.554 9.538-4.016 15.004-4.016h345c16.569 0 30 13.431 30 30v295c0 5.466-1.462 10.591-4.016 15.004-5.188 8.965-15.882 13.996-26.984 13.996z" fill="#f8f7f7"/><path d="m88.5 347.5c-11.046 0-20-8.954-20-20v-315.977c-8.964 5.188-15 14.874-15 25.977v295c0 16.569 13.431 30 30 30h345c11.102 0 20.789-6.036 25.977-15z" fill="#e8e8e8"/><path d="m417.5 331.5h-323c-5.523 0-10-4.477-10-10v-273c0-5.523 4.477-10 10-10l4-1h320c5.523 0 10 4.477 10 10v270l-1 4c0 5.523-4.477 10-10 10z" fill="#e8e8e8"/><path d="m101.553 317.5c-1.686 0-3.053-1.367-3.053-3.053v-276.947h-5c-5.523 0-10 4.477-10 10v275c0 5.523 4.477 10 10 10h325c5.523 0 10-4.477 10-10v-5z" fill="#d8d8d8"/><g><path d="m230.019 94.936-86.677 150.128c-11.547 20 2.887 45 25.981 45h173.353c23.094 0 37.528-25 25.981-45l-86.676-150.128c-11.547-20-40.415-20-51.962 0z" fill="#ffd163"/><path d="m170.471 273.064c-10.271 0-16.69-11.119-11.555-20.014l99.866-172.973c-10.993-1.004-22.459 3.939-28.764 14.859l-86.677 150.128c-11.547 20 2.887 45 25.981 45h173.353c12.407 0 22.307-7.22 27.029-17z" fill="#ffb65f"/><path d="m210.621 200.588c-2.745 3.657-1.135 7.879 3.438 7.879l3.899 1h26.584c.719 0 3.203.737 2.918 1.397l-16.647 37.504c-2.599 6.012-.191 13.72 6.359 13.72 2.865 0 5.564-1.349 7.283-3.64l47.925-63.86c2.745-3.657.135-8.879-4.438-8.879h-30.483c-.719 0-1.203-.737-.918-1.397l16.647-38.504c1.3-3.006.848-6.186-.748-8.615-.037-.056-.075-.112-.113-.168-1.61-2.338-4.298-2.938-7.497-2.938-2.865 0-4.564.349-6.283 2.64z" fill="#8d9ca8"/><g fill="#7a8c98"><path d="m264.829 133.087c-2.865 0-5.563 1.349-7.283 3.64l-47.925 63.86c-2.745 3.657-.135 8.879 4.438 8.879h3.899l54.361-72.436c-1.611-2.337-4.291-3.943-7.49-3.943z"/><path d="m259.855 212.26c.571-1.32-.397-2.794-1.836-2.794h-13.478c.053.001.511.013.801.402.334.448.127.97.117.995l-16.488 38.137c-.364.752-1.039 2.407-.897 4.573.173 2.643 1.458 4.435 1.978 5.086.397.497 2.142 2.575 5.208 3.231 1.289.276 2.387.209 3.089.115z"/></g></g><path d="m161.5 91.5c0-13.255-10.745-24-24-24-4.552 0-8.807 1.267-12.433 3.468-6.934 4.207-10.567 11.829-10.567 20.532 0 13.255 9.745 23 23 23 10.249 0 18.998-5.424 22.438-14.466 1.009-2.652 1.562-5.528 1.562-8.534z" fill="#8d9ca8"/><path d="m147.5 103.5c-13.255 0-24-10.745-24-24 0-3.006.558-5.88 1.567-8.532-6.934 4.208-11.567 11.829-11.567 20.532 0 13.255 10.745 24 24 24 10.249 0 18.992-6.427 22.433-15.468-3.626 2.201-7.881 3.468-12.433 3.468z" fill="#7a8c98"/></g><g><path d="m216.438 30h-122.938c-9.649 0-17.5 7.851-17.5 17.5v185.351c0 4.143 3.357 7.5 7.5 7.5s7.5-3.357 7.5-7.5v-185.351c0-1.379 1.121-2.5 2.5-2.5h122.938c4.143 0 7.5-3.357 7.5-7.5s-3.358-7.5-7.5-7.5z"/><path d="m76 322.5c0 9.649 7.851 17.5 17.5 17.5h325c9.649 0 17.5-7.851 17.5-17.5v-275c0-9.649-7.851-17.5-17.5-17.5h-167.062c-4.143 0-7.5 3.357-7.5 7.5s3.357 7.5 7.5 7.5h167.062c1.379 0 2.5 1.121 2.5 2.5v275c0 1.379-1.121 2.5-2.5 2.5h-325c-1.379 0-2.5-1.121-2.5-2.5v-54.649c0-4.143-3.357-7.5-7.5-7.5s-7.5 3.357-7.5 7.5z"/><path d="m504.5 497h-163.5c-12.406 0-22.5-10.094-22.5-22.5v-104.5h15v101.5c0 5.79 4.71 10.5 10.5 10.5h160.5c4.143 0 7.5-3.357 7.5-7.5s-3.357-7.5-7.5-7.5h-156v-58h44c9.649 0 17.5-7.851 17.5-17.5v-21.5h18.5c20.678 0 37.5-16.822 37.5-37.5v-147.606c0-4.143-3.357-7.5-7.5-7.5s-7.5 3.357-7.5 7.5v147.606c0 12.406-10.094 22.5-22.5 22.5-33.625 0-311.95 0-345 0-12.406 0-22.5-10.094-22.5-22.5v-295c0-12.406 10.094-22.5 22.5-22.5h345c12.406 0 22.5 10.094 22.5 22.5v112.394c0 4.143 3.357 7.5 7.5 7.5s7.5-3.357 7.5-7.5v-112.394c0-20.678-16.822-37.5-37.5-37.5h-345c-20.678 0-37.5 16.822-37.5 37.5v295c0 20.678 16.822 37.5 37.5 37.5h18.5v21.5c0 9.649 7.851 17.5 17.5 17.5h44v58h-54c-4.143 0-7.5 3.357-7.5 7.5s3.357 7.5 7.5 7.5h58.5c5.79 0 10.5-4.71 10.5-10.5v-101.5h15v104.5c0 12.406-10.094 22.5-22.5 22.5h-163.5c-4.143 0-7.5 3.357-7.5 7.5s3.357 7.5 7.5 7.5h163.5c20.678 0 37.5-16.822 37.5-37.5v-65.5h25v95.5c0 4.143 3.357 7.5 7.5 7.5s7.5-3.357 7.5-7.5v-134.5h15v134.5c0 4.143 3.357 7.5 7.5 7.5s7.5-3.357 7.5-7.5v-95.5h25v65.5c0 20.678 16.822 37.5 37.5 37.5h163.5c4.143 0 7.5-3.357 7.5-7.5s-3.357-7.5-7.5-7.5zm-109.5-105.5c0 1.379-1.121 2.5-2.5 2.5h-44v-24h46.5zm-231.5 2.5h-44c-1.379 0-2.5-1.121-2.5-2.5v-21.5h46.5zm70 0h-25v-24h25zm45 0v-24h25v24z"/><path d="m7.5 482h67c4.143 0 7.5-3.357 7.5-7.5s-3.357-7.5-7.5-7.5h-67c-4.143 0-7.5 3.357-7.5 7.5s3.357 7.5 7.5 7.5z"/><path d="m214.059 216.967h20.59l-12.722 29.425c-2.226 5.149-1.715 11.022 1.366 15.71s8.269 7.486 13.878 7.486c5.197 0 10.163-2.482 13.282-6.639l47.924-63.86c2.987-3.979 3.461-9.215 1.236-13.666-2.224-4.45-6.696-7.215-11.672-7.215h-20.591l12.721-29.424c2.227-5.149 1.717-11.022-1.363-15.71-3.081-4.688-8.269-7.486-13.879-7.486-5.196 0-10.162 2.481-13.282 6.638l-47.924 63.86c-2.987 3.979-3.461 9.215-1.236 13.666 2.223 4.45 6.696 7.215 11.672 7.215zm49.485-75.737c.302-.402.782-.643 1.285-.643.717 0 1.126.394 1.343.724s.416.862.132 1.52l-17.251 39.9c-1.003 2.318-.771 4.984.616 7.096 1.387 2.11 3.742 3.381 6.268 3.381h28.101l-45.582 60.738c-.302.401-.781.642-1.284.642-.717 0-1.126-.394-1.343-.725-.217-.33-.417-.862-.133-1.52l17.251-39.9c1.003-2.318.771-4.984-.616-7.096-1.387-2.11-3.742-3.381-6.268-3.381h-28.1z"/><path d="m169.323 297.564h173.354c28.306.726 46.858-32.248 32.476-56.25l-86.677-150.128c-14.558-25.616-51.445-23.958-64.951 0l-86.677 150.129c-14.844 25.531 4.937 56.479 32.475 56.249zm-19.485-48.75 86.677-150.129c7.614-14.318 30.604-15.047 38.971 0l86.677 150.129c8.536 13.621-2.231 34.079-19.485 33.75h-173.355c-16.222.541-28.274-18.87-19.485-33.75z"/><path d="m137.5 145c4.143 0 7.5-3.357 7.5-7.5v-15.409c13.759-3.374 24-15.806 24-30.591 0-17.369-14.131-31.5-31.5-31.5s-31.5 14.131-31.5 31.5c0 14.785 10.241 27.216 24 30.591v15.409c0 4.143 3.357 7.5 7.5 7.5zm-16.5-53.5c0-9.098 7.402-16.5 16.5-16.5s16.5 7.402 16.5 16.5-7.402 16.5-16.5 16.5-16.5-7.402-16.5-16.5z"/></g></g></svg>