<svg xmlns="http://www.w3.org/2000/svg" id="Capa_1" height="512" viewBox="0 0 511.994 511.994" width="512"><path d="m255.988 23.153c.28-5.824-4.268-10.46-10.097-10.292-34.256.988-83.2 8.594-109.201 34.102-23.04 22.603-28.116 49.553-22.12 77.521 2.944 13.731 13.627 24.621 27.299 27.827 27.847 6.531 54.891 1.973 77.931-20.63 26-25.508 34.544-74.297 36.188-108.528z" fill="#2db181"/><path d="m255.988 23.153c-1.644 34.231-10.187 83.018-36.189 108.529-19.596 19.222-42.095 25.393-65.519 22.785 16.279-1.949 31.8-9.025 45.835-22.785 26.003-25.511 34.546-74.298 36.189-108.529.197-4.252-2.165-7.864-5.718-9.439 5.325-.443 10.462-.718 15.304-.856 5.826-.167 10.373 4.468 10.098 10.295z" fill="#1ca56f"/><path d="m24.274 27.374c-.224-5.827 4.368-10.419 10.195-10.195 34.245 1.316 83.114 9.391 108.87 35.147 22.822 22.822 27.639 49.821 21.376 77.729-3.075 13.703-13.862 24.489-27.564 27.564-27.909 6.264-54.907 1.447-77.729-21.376-25.756-25.755-33.832-74.624-35.148-108.869z" fill="#bcea73"/><path d="m164.712 130.058c-2.146 9.557-8.031 17.686-16.052 22.775 1.378-2.687 2.421-5.561 3.1-8.582 6.269-27.902 1.447-54.899-21.377-77.723-25.019-25.03-71.868-33.356-105.921-35.01-.069-1.407-.138-2.785-.187-4.144-.226-5.826 4.37-10.423 10.196-10.196 34.241 1.319 83.117 9.389 108.864 35.146 22.824 22.824 27.646 49.821 21.377 77.734z" fill="#a3e440"/><path d="m78.229 196.712-46.509 240.565h229.06l-46.51-240.565c-.909-4.704-5.027-8.102-9.818-8.102h-116.405c-4.791.001-8.908 3.399-9.818 8.102z" fill="#eaf9fa"/><path d="m260.78 437.282h-20.58l-46.51-240.57c-.91-4.7-5.03-8.1-9.82-8.1h20.58c4.79 0 8.91 3.4 9.82 8.1z" fill="#d4f2f6"/><path d="m243.84 392.535v106.6h-226.34c-5.523 0-10-4.477-10-10v-86.6c0-5.523 4.477-10 10-10z" fill="#0e6ac2"/><path d="m213.71 392.535h30.13v106.6h-30.13z" fill="#0857a0"/><path d="m481.48 247.045v242.09c0 5.523-4.477 10-10 10h-126.28v-163.22l30.78-20.07z" fill="#0e6ac2"/><g fill="#0857a0"><path d="m481.48 247.045v31.43l-136.28 88.88v-31.44l30.78-20.07z"/><path d="m375.98 315.845v183.291h-30.78v-163.221z"/><path d="m464.855 257.882v241.255h6.623c5.523 0 10-4.477 10-10v-242.096z"/></g><path d="m314.103 360.325-3.776-5.79c-2.979-4.568-1.691-10.686 2.877-13.666l172.25-112.337c4.568-2.979 10.686-1.691 13.666 2.877l3.776 5.79c2.979 4.568 1.691 10.686-2.877 13.666l-172.25 112.337c-4.568 2.979-10.687 1.691-13.666-2.877z" fill="#fdd330"/><path d="m446.478 499.137h-42.462v-58.383c0-5.454 4.421-9.875 9.875-9.875h22.712c5.454 0 9.875 4.421 9.875 9.875z" fill="#fdd330"/><path d="m362.98 247.045v242.09c0 5.523-4.477 10-10 10h-126.27v-163.22z" fill="#5591d6"/><path d="m362.98 247.045v31.43l-136.27 88.88v-31.44z" fill="#1475cb"/><path d="m346.356 257.882v241.255h6.623c5.523 0 10-4.477 10-10v-242.096z" fill="#1475cb"/><path d="m195.604 360.325-3.776-5.79c-2.979-4.568-1.691-10.686 2.877-13.666l172.25-112.337c4.568-2.979 10.686-1.691 13.666 2.877l3.776 5.79c2.979 4.568 1.691 10.686-2.877 13.666l-172.25 112.337c-4.568 2.979-10.687 1.691-13.666-2.877z" fill="#fee265"/><path d="m327.979 499.137h-42.462v-58.383c0-5.454 4.421-9.875 9.875-9.875h22.712c5.454 0 9.875 4.421 9.875 9.875z" fill="#fee265"/><path d="m51.608 426.107h107.966v73.031h-107.966z" fill="#cbe5e7"/><path d="m144.496 232.925-31.311 50.21c-2.525 4.049.386 9.296 5.158 9.296h18.425v38.052c0 6.111 8.004 8.402 11.237 3.217l31.311-50.21c2.525-4.049-.386-9.296-5.158-9.296h-18.425v-38.052c0-6.111-8.004-8.402-11.237-3.217" fill="#22c7db"/><path d="m509.178 233.102-3.776-5.79c-5.234-8.024-16.02-10.294-24.045-5.062l-110.877 72.312v-27.542l15.138-9.873c8.023-5.234 10.294-16.02 5.062-24.045l-3.776-5.79c-5.233-8.024-16.019-10.294-24.045-5.062l-120.781 78.771-20.442-105.733c-1.589-8.215-8.815-14.177-17.182-14.177h-42.658c-.531-6.379-1.601-12.651-3.192-18.76 1.945.118 3.879.198 5.788.198 23.013 0 43.363-8.545 60.66-25.514 9.871-9.683 18.072-23.035 24.377-39.686 1.467-3.874-.484-8.203-4.358-9.67-3.875-1.467-8.203.484-9.67 4.358-5.529 14.604-12.545 26.14-20.853 34.29-14.395 14.121-30.743 21.128-49.654 21.226 3.359-4.692 5.838-10.053 7.14-15.855 2.213-9.86 3.064-19.301 2.582-28.308l40.74-39.967c2.957-2.901 3.002-7.649.102-10.606-2.901-2.957-7.649-3.003-10.606-.102l-33.178 32.548c-3.93-14.043-11.613-26.823-23.03-38.24-.085-.085-.176-.163-.261-.248 28.849-22.011 77.25-25.827 97.726-26.417.91-.031 1.462.341 1.769.654s.664.876.621 1.781c-.613 12.776-2.14 25.813-4.414 37.704-.778 4.068 1.89 7.997 5.958 8.775.476.091.95.135 1.417.135 3.527 0 6.671-2.5 7.358-6.093 2.404-12.57 4.016-26.333 4.663-39.801.233-4.856-1.551-9.597-4.895-13.005-3.344-3.409-8.041-5.275-12.909-5.144-22.613.652-76.933 5.108-109.139 31.695-32.358-22.201-80.686-26.564-101.78-27.375-4.866-.184-9.582 1.643-12.958 5.02s-5.206 8.1-5.02 12.958c.92 23.935 6.399 82.945 37.338 113.884 17.378 17.378 37.907 26.114 61.253 26.113 7.518 0 15.332-.907 23.422-2.723 1.562-.351 3.081-.811 4.576-1.324 1.647 5.679 2.77 11.531 3.345 17.498h-58.667c-8.367 0-15.593 5.962-17.182 14.178l-36.683 189.744h-16.682c-9.649 0-17.5 7.851-17.5 17.5v86.605c0 9.649 7.851 17.5 17.5 17.5h453.978c9.649 0 17.5-7.851 17.5-17.5v-222.117l15.137-9.872c8.025-5.234 10.296-16.02 5.063-24.046zm-373.67-82.801c-28.261 6.341-51.413.009-70.784-19.361-27.187-27.188-32.103-81.685-32.955-103.854-.035-.906.327-1.465.637-1.775.296-.296.819-.64 1.655-.64.039 0 .08 0 .12.002 22.169.852 76.667 5.768 103.854 32.955 19.371 19.371 25.704 42.524 19.361 70.784-1.093 4.868-3.43 9.274-6.646 12.881-5.302-10.719-12.362-20.608-21.028-29.274l-54.595-54.594c-2.929-2.929-7.678-2.929-10.606 0-2.929 2.929-2.929 7.678 0 10.606l54.595 54.595c7.932 7.932 14.297 17.056 18.96 26.955-.842.274-1.695.524-2.568.72zm235.543 84.514c1.096-.717 2.572-.405 3.287.692l3.776 5.789c.715 1.097.405 2.572-.692 3.287l-172.25 112.337c-.716.467-1.427.411-1.786.334-.359-.076-1.033-.31-1.5-1.027l-3.776-5.79c-.468-.717-.411-1.427-.334-1.786.076-.36.31-1.033 1.026-1.5zm-356.051 254.322v-86.605c0-1.378 1.122-2.5 2.5-2.5h114.5c4.142 0 7.5-3.358 7.5-7.5s-3.358-7.5-7.5-7.5h-82.54l36.133-186.895c.227-1.174 1.259-2.026 2.455-2.026h116.405c1.195 0 2.228.852 2.455 2.025l21.602 111.734-37.901 24.718c-8.024 5.233-10.295 16.02-5.062 24.045l3.776 5.79c2.536 3.887 6.433 6.555 10.974 7.511 1.204.253 2.413.378 3.615.378 3.333 0 6.599-.964 9.456-2.827l5.839-3.808v19.355h-53.207c-4.142 0-7.5 3.358-7.5 7.5s3.358 7.5 7.5 7.5h53.205v91.605h-52.132v-65.53c0-4.142-3.358-7.5-7.5-7.5h-107.965c-4.142 0-7.5 3.358-7.5 7.5v65.53h-26.608c-1.378 0-2.5-1.121-2.5-2.5zm137.074-46.193h-92.966v-9.337h92.966zm-92.966 15h92.966v9.355h-92.966zm0 33.693v-9.337h92.966v9.337zm261.371 0h-27.462v-50.883c0-1.31 1.065-2.375 2.375-2.375h22.712c1.31 0 2.375 1.065 2.375 2.375zm118.499 0h-27.462v-50.883c0-1.31 1.065-2.375 2.375-2.375h22.712c1.31 0 2.375 1.065 2.375 2.375zm35-2.5c0 1.378-1.122 2.5-2.5 2.5h-17.5v-50.883c0-9.581-7.794-17.375-17.375-17.375h-22.713c-9.581 0-17.375 7.794-17.375 17.375v50.883h-26.236c.118-.819.2-1.649.2-2.5v-75.142c0-4.142-3.358-7.5-7.5-7.5s-7.5 3.358-7.5 7.5v75.142c0 1.378-1.122 2.5-2.5 2.5h-1.775-15.726v-50.883c0-9.581-7.794-17.375-17.375-17.375h-22.712c-9.581 0-17.375 7.794-17.375 17.375v50.883h-43.811v-135.743l121.273-79.091v103.193c0 4.142 3.358 7.5 7.5 7.5s7.5-3.358 7.5-7.5v-35.693l103.499-67.5v212.334zm21.943-244.554-125.442 81.81v-13.922l119.071-77.656c1.096-.715 2.572-.405 3.287.692l3.776 5.789c.716 1.097.405 2.572-.692 3.287z"/><path d="m154.368 337.667 31.312-50.21c2.609-4.185 2.744-9.462.351-13.774s-6.942-6.99-11.873-6.99h-10.925v-30.551c0-6.124-3.955-11.37-9.842-13.055-5.886-1.685-12.019.673-15.259 5.869l-31.312 50.21c-2.609 4.185-2.744 9.462-.351 13.774s6.942 6.99 11.873 6.99h10.925v30.552c0 6.123 3.955 11.369 9.842 13.054 1.268.363 2.546.538 3.805.538 4.588.001 8.912-2.33 11.454-6.407zm-17.601-52.736h-15.864l27.33-43.825v33.087c0 4.142 3.358 7.5 7.5 7.5h15.864l-27.33 43.825v-33.087c0-4.143-3.358-7.5-7.5-7.5z"/><path d="m183.87 467.122c4.142 0 7.5-3.358 7.5-7.5v-7.626c0-4.142-3.358-7.5-7.5-7.5s-7.5 3.358-7.5 7.5v7.626c0 4.142 3.358 7.5 7.5 7.5z"/></svg>