<?xml version="1.0" encoding="UTF-8"?><svg xmlns="http://www.w3.org/2000/svg" id="Layer_1" data-name="Layer 1" viewBox="0 0 72 72"><defs><style> .cls-1 { fill: #fdb716; fill-rule: evenodd; } .cls-2 { fill: #11375c; } </style></defs><rect class="cls-2" x=".83" y=".36" width="32.33" height="32.33" rx="8.28" ry="8.28"/><g><path class="cls-1" d="M70.93,17.68c-.57,0-1.02-.45-1.05-1h-10.6v15.44c.97-.26,1.9-.62,2.79-1.05l-.1-.18c-.29-.51-.11-1.16.4-1.44.51-.29,1.16-.11,1.44.4l.1.18c.91-.6,1.76-1.29,2.53-2.07.72-.72,1.38-1.52,1.96-2.37l-.18-.11c-.51-.3-.67-.94-.38-1.45.3-.51.94-.67,1.45-.38l.18.11c.93-1.85,1.51-3.91,1.66-6.08h-.2ZM40.12,16.67c-.11.46-.54.81-1.03.8h-.2c.13,2.18.68,4.24,1.59,6.1l.18-.1c.51-.29,1.16-.11,1.44.4.29.51.11,1.16-.4,1.44l-.18.1c1.17,1.77,2.67,3.3,4.43,4.49l.11-.18c.3-.5.94-.67,1.45-.38.5.29.67.94.38,1.45l-.11.18c1.85.93,3.91,1.52,6.08,1.67v-.21c0-.58.48-1.06,1.07-1.05.58,0,1.06.48,1.05,1.07v.21c.9-.05,1.78-.18,2.63-.37v-15.61h-18.48ZM56.17.4v.2c0,.58-.48,1.06-1.07,1.05-.59,0-1.06-.48-1.05-1.07v-.2c-2.17.13-4.23.68-6.09,1.59l.1.18c.29.51.11,1.16-.4,1.44s-1.16.11-1.44-.4l-.1-.17c-.91.6-1.76,1.3-2.53,2.07-.72.72-1.38,1.51-1.95,2.36l.17.1c.5.3.67.94.38,1.45-.3.51-.94.68-1.45.38l-.18-.1c-.93,1.85-1.51,3.9-1.67,6.08h.2c.43,0,.8.27.96.64h18.54V.76c-.79-.18-1.6-.3-2.43-.36Z"/><path class="cls-1" d="M71.15,15.56h-.2c-.35,0-.67.17-.86.43h-10.8V.93c1.03.28,2.03.66,2.97,1.14l-.1.18c-.29.5-.13,1.15.38,1.45.5.3,1.15.13,1.45-.38l.1-.17c.85.58,1.64,1.23,2.36,1.96.77.77,1.46,1.62,2.06,2.53l-.18.1c-.51.29-.68.93-.4,1.44.29.51.94.68,1.44.4l.18-.1c.91,1.86,1.46,3.92,1.59,6.1Z"/></g><rect class="cls-2" x=".83" y="39.31" width="32.33" height="32.33" rx="8.28" ry="8.28"/><rect class="cls-2" x="38.85" y="39.31" width="32.33" height="32.33" rx="8.28" ry="8.28"/></svg>