<svg xmlns="http://www.w3.org/2000/svg" clip-rule="evenodd" fill-rule="evenodd" stroke-linecap="round" stroke-linejoin="round" stroke-miterlimit="2" viewBox="0 0 64 64"><g><path d="m49 9c3.311 0 6 2.689 6 6s-2.689 6-6 6-6-2.689-6-6 2.689-6 6-6z" fill="#f93"/><g fill="#f60"><path d="m48 4c0-.552.448-1 1-1s1 .448 1 1v1c0 .552-.448 1-1 1s-1-.448-1-1z"/><path d="m56.071 6.515c.39-.391 1.024-.391 1.414 0 .391.39.391 1.024 0 1.414l-.707.707c-.39.39-1.024.39-1.414 0s-.39-1.024 0-1.414z"/><path d="m60 14c.552 0 1 .448 1 1s-.448 1-1 1h-1c-.552 0-1-.448-1-1s.448-1 1-1z"/><path d="m57.485 22.071c.391.39.391 1.024 0 1.414-.39.391-1.024.391-1.414 0l-.707-.707c-.39-.39-.39-1.024 0-1.414s1.024-.39 1.414 0z"/><path d="m50 26c0 .552-.448 1-1 1s-1-.448-1-1v-1c0-.552.448-1 1-1s1 .448 1 1z"/><path d="m41.929 23.485c-.39.391-1.024.391-1.414 0-.391-.39-.391-1.024 0-1.414l.707-.707c.39-.39 1.024-.39 1.414 0s.39 1.024 0 1.414z"/><path d="m38 16c-.552 0-1-.448-1-1s.448-1 1-1h1c.552 0 1 .448 1 1s-.448 1-1 1z"/><path d="m40.515 7.929c-.391-.39-.391-1.024 0-1.414.39-.391 1.024-.391 1.414 0l.707.707c.39.39.39 1.024 0 1.414s-1.024.39-1.414 0z"/></g><path d="m6 35.999v22.001c0 1.105.895 2 2 2h2c1.105 0 2-.895 2-2v-22.001" fill="#ccc"/><path d="m33 37v7h6v-7" fill="none" stroke="#666" stroke-width="2"/><path d="m9 27h32c2.76 0 5 2.24 5 5s-2.24 5-5 5h-32" fill="#ccc"/><path d="m48.027 41.841c-.375-.528-.983-.841-1.63-.841h-33.397c-.374 0-.717.209-.889.541-.171.333-.143.733.074 1.038 2.741 3.856 9.703 13.649 11.787 16.58.375.528.982.841 1.63.841h33.397c.374 0 .717-.209.889-.541.171-.333.143-.733-.074-1.038-2.741-3.856-9.703-13.649-11.787-16.58z" fill="#9cf"/><path d="m34.772 60-13.095-18.421c-.125-.176-.185-.378-.185-.579h2.227l13.095 18.421c.126.176.186.378.185.579zm2.454-19 13.096 18.421c.125.176.185.378.185.579h-2.227l-13.096-18.421c-.125-.176-.185-.378-.184-.579z" fill="#fff"/><path d="m14.639 46.031c.163-.116.363-.185.579-.185h35.656l1.291 1.815c-.164.117-.364.186-.58.186h-35.656zm5.195 7.308c.164-.117.364-.185.58-.185h35.656l1.29 1.815c-.164.116-.364.185-.579.185h-35.656z" fill="#fff"/><path d="m9 27c2.76 0 5 2.24 5 5s-2.24 5-5 5-5-2.24-5-5 2.24-5 5-5z" fill="#666"/><path d="m13 45.452v12.548c0 1.657-1.343 3-3 3h-2c-1.657 0-3-1.343-3-3v-21.529c-1.227-1.099-2-2.696-2-4.471 0-3.311 2.689-6 6-6h32c3.311 0 6 2.689 6 6s-2.689 6-6 6h-1v2h6.397c.971 0 1.882.47 2.445 1.262l11.787 16.579c.434.61.49 1.411.147 2.076s-1.029 1.083-1.777 1.083h-33.397c-.971 0-1.882-.47-2.445-1.262zm20-9.452h8c2.208 0 4-1.792 4-4s-1.792-4-4-4h-27.529c.95 1.062 1.529 2.464 1.529 4s-.578 2.938-1.529 3.999zm-1 2h-19v2h19zm6 2v-2h-4v2zm-25 2 2.734 3.846h8.976l-2.734-3.846zm4.156 5.847 3.774 5.307h8.975l-3.773-5.307zm5.196 7.307 2.435 3.425c.187.264.491.421.815.421h8.46l-2.735-3.846zm14.163 3.846h11.054l-2.734-3.846h-11.054zm13.508 0h8.976l-2.734-3.846h-8.976zm4.82-5.846-3.774-5.307h-8.975l3.773 5.307zm-5.196-7.308-2.435-3.425c-.188-.264-.491-.421-.815-.421h-8.46l2.735 3.846zm-14.164-3.846h-11.053l2.734 3.846h11.054zm-6.897 5.847 3.773 5.307h11.054l-3.773-5.307zm-21.586-10.189v20.342c0 .552.448 1 1 1h2c.552 0 1-.448 1-1v-20h-2c-.701 0-1.374-.121-2-.342zm1-9.532c-1.724.445-3 2.012-3 3.874 0 1.194.524 2.266 1.354 2.999.466.411 1.027.715 1.646.875.32.082.655.126 1 .126s.68-.044 1-.126c.619-.16 1.18-.464 1.646-.875.83-.733 1.354-1.805 1.354-2.999 0-1.862-1.276-3.429-3-3.874-.32-.082-.655-.126-1-.126s-.68.044-1 .126zm41-20.126c3.863 0 7 3.137 7 7s-3.137 7-7 7-7-3.137-7-7 3.137-7 7-7zm0 2c-2.76 0-5 2.24-5 5s2.24 5 5 5 5-2.24 5-5-2.24-5-5-5zm-1-6c0-.552.448-1 1-1s1 .448 1 1v1c0 .552-.448 1-1 1s-1-.448-1-1zm8.071 2.515c.39-.391 1.024-.391 1.414 0 .391.39.391 1.024 0 1.414l-.707.707c-.39.39-1.024.39-1.414 0s-.39-1.024 0-1.414zm3.929 7.485c.552 0 1 .448 1 1s-.448 1-1 1h-1c-.552 0-1-.448-1-1s.448-1 1-1zm-2.515 8.071c.391.39.391 1.024 0 1.414-.39.391-1.024.391-1.414 0l-.707-.707c-.39-.39-.39-1.024 0-1.414s1.024-.39 1.414 0zm-7.485 3.929c0 .552-.448 1-1 1s-1-.448-1-1v-1c0-.552.448-1 1-1s1 .448 1 1zm-8.071-2.515c-.39.391-1.024.391-1.414 0-.391-.39-.391-1.024 0-1.414l.707-.707c.39-.39 1.024-.39 1.414 0s.39 1.024 0 1.414zm-3.929-7.485c-.552 0-1-.448-1-1s.448-1 1-1h1c.552 0 1 .448 1 1s-.448 1-1 1zm2.515-8.071c-.391-.39-.391-1.024 0-1.414.39-.391 1.024-.391 1.414 0l.707.707c.39.39.39 1.024 0 1.414s-1.024.39-1.414 0z"/></g></svg>