<?xml version="1.0" encoding="UTF-8"?><svg xmlns="http://www.w3.org/2000/svg" xmlns:xlink="http://www.w3.org/1999/xlink" version="1.1" id="Capa_1" x="0px" y="0px" viewBox="0 0 512 512" style="enable-background:new 0 0 512 512;" xml:space="preserve" width="512" height="512"><g><g><circle style="fill:#FFE177;" cx="256" cy="62.158" r="54.656"/><path style="fill:#FECE85;" d="M265.595,115.968c-3.11,0.556-6.327,0.844-9.597,0.844c-30.191,0-54.654-24.474-54.654-54.654&#10;&#9;&#9;&#9;c0-30.191,24.463-54.654,54.654-54.654c3.27,0,6.487,0.289,9.597,0.844c-25.607,4.532-45.057,26.9-45.057,53.81&#10;&#9;&#9;&#9;C220.538,89.068,239.988,111.436,265.595,115.968z"/><path style="fill:none;stroke:#000000;stroke-width:15;stroke-linecap:round;stroke-linejoin:round;stroke-miterlimit:10;" d="&#10;&#9;&#9;&#9;M230.4,110.46c-17.29-9.18-29.05-27.37-29.05-48.3c0-30.19,24.46-54.66,54.65-54.66c10.93,0,21.11,3.21,29.64,8.73"/><path style="fill:none;stroke:#000000;stroke-width:15;stroke-linecap:round;stroke-linejoin:round;stroke-miterlimit:10;" d="&#10;&#9;&#9;&#9;M306.7,41.7c2.55,6.32,3.95,13.22,3.95,20.46c0,20.93-11.76,39.12-29.05,48.3"/><g><path style="fill:none;stroke:#000000;stroke-width:15;stroke-linecap:round;stroke-linejoin:round;stroke-miterlimit:10;" d="&#10;&#9;&#9;&#9;&#9;M265.343,41.011c-0.897-0.747-6.037-4.623-13.577-2.351c-7.639,2.301-9.537,12.754-4.345,16.826&#10;&#9;&#9;&#9;&#9;c2.981,2.338,7.466,4.26,13.511,6.397c13.529,4.782,8.528,23.862-5.234,23.954c-5.371,0.036-7.881-0.305-12.599-3.391"/><line style="fill:none;stroke:#000000;stroke-width:15;stroke-linecap:round;stroke-linejoin:round;stroke-miterlimit:10;" x1="255.694" y1="92.799" x2="255.694" y2="85.836"/><line style="fill:none;stroke:#000000;stroke-width:15;stroke-linecap:round;stroke-linejoin:round;stroke-miterlimit:10;" x1="255.694" y1="37.972" x2="255.694" y2="31.517"/></g></g><g><path style="fill:#C8EFFE;" d="M469.728,325.648v90.003c0,48.968-39.696,88.664-88.664,88.664H130.948&#10;&#9;&#9;&#9;c-48.979,0-88.675-39.696-88.675-88.674v-89.993c0-37.412,23.176-69.413,55.956-82.434c8.732-3.479,14.589-11.775,14.589-21.172&#10;&#9;&#9;&#9;V199.5l46.705-5.347l96.472-11.058L399.193,199.5v22.542c0,9.397,5.856,17.693,14.589,21.172&#10;&#9;&#9;&#9;C446.562,256.235,469.728,288.237,469.728,325.648z"/><path style="fill:#99E6FC;" d="M122.402,325.648v89.993c0,48.979,31.763,88.674,70.95,88.674h-62.404&#10;&#9;&#9;&#9;c-48.974,0-88.675-39.701-88.675-88.675v-89.993c0-37.412,23.176-69.413,55.956-82.434c8.732-3.479,14.589-11.775,14.589-21.172&#10;&#9;&#9;&#9;V199.5l46.705-5.347l96.472-11.058l20.777,2.378h0.01l122.41,14.028v22.542h-211.53c-4.582,0-8.592,3.053-9.84,7.462&#10;&#9;&#9;&#9;c-1.742,6.154-5.591,11.193-10.648,13.71C140.947,256.235,122.402,288.237,122.402,325.648z"/><path style="fill:#D9B1EE;" d="M373.868,110.465H138.142c-13.986,0-25.325,11.338-25.325,25.325v30.893L256,183.092&#10;&#9;&#9;&#9;l143.193-16.409V135.79C399.193,121.803,387.854,110.465,373.868,110.465z"/><path style="fill:#CB97E7;" d="M279.845,180.366l-23.851,2.731l-143.177-16.406V135.79c0-13.976,11.339-25.315,25.325-25.315&#10;&#9;&#9;&#9;h47.701c-13.986,0-25.325,11.339-25.325,25.315v30.901L279.845,180.366z"/><path style="fill:#C8EFFE;" d="M403.58,166.683H108.42c-9.063,0-16.409,7.347-16.409,16.409v0c0,9.063,7.347,16.409,16.409,16.409&#10;&#9;&#9;&#9;h295.16c9.062,0,16.409-7.347,16.409-16.409v0C419.989,174.029,412.642,166.683,403.58,166.683z"/><path style="fill:#99E6FC;" d="M180.02,194.693c2.959,2.97,7.071,4.807,11.598,4.807h-83.202c-4.527,0-8.629-1.838-11.598-4.807&#10;&#9;&#9;&#9;c-2.97-2.97-4.807-7.061-4.807-11.598c0-9.065,7.351-16.416,16.406-16.416h83.202c-9.065,0-16.406,7.352-16.406,16.416&#10;&#9;&#9;&#9;C175.212,187.631,177.05,191.723,180.02,194.693z"/><path style="fill:none;stroke:#000000;stroke-width:15;stroke-linecap:round;stroke-linejoin:round;stroke-miterlimit:10;" d="&#10;&#9;&#9;&#9;M177.02,199.5h226.56c9.06,0,16.41-7.35,16.41-16.41c0-4.53-1.84-8.63-4.81-11.6s-7.07-4.81-11.6-4.81H108.42&#10;&#9;&#9;&#9;c-9.06,0-16.41,7.35-16.41,16.41c0,4.53,1.84,8.63,4.81,11.6s7.07,4.81,11.6,4.81h33.6"/><path style="fill:none;stroke:#000000;stroke-width:15;stroke-linecap:round;stroke-linejoin:round;stroke-miterlimit:10;" d="&#10;&#9;&#9;&#9;M399.193,166.683V135.79c0-13.986-11.338-25.325-25.325-25.325H138.142c-13.986,0-25.325,11.338-25.325,25.325v30.893"/><path style="fill:none;stroke:#000000;stroke-width:15;stroke-linecap:round;stroke-linejoin:round;stroke-miterlimit:10;" d="&#10;&#9;&#9;&#9;M399.193,199.501v22.54c0,9.401,5.855,17.7,14.591,21.171c32.776,13.021,55.943,45.023,55.943,82.438v90.003&#10;&#9;&#9;&#9;c0,48.968-39.696,88.664-88.664,88.664H130.947c-48.974,0-88.675-39.701-88.675-88.675v-89.992&#10;&#9;&#9;&#9;c0-37.415,23.175-69.416,55.953-82.438c8.737-3.471,14.592-11.77,14.592-21.171v-22.54"/></g><g><path style="fill:#FFE177;" d="M356.393,465.173H268.08c-5.799,0-10.5,4.701-10.5,10.5v18.138c0,5.799,4.701,10.5,10.5,10.5&#10;&#9;&#9;&#9;h88.313c5.799,0,10.5-4.701,10.5-10.5v-18.138C366.893,469.874,362.192,465.173,356.393,465.173z"/><path style="fill:#FECE85;" d="M303.706,504.315h-35.62c-5.803,0-10.506-4.702-10.506-10.506v-18.136&#10;&#9;&#9;&#9;c0-5.803,4.702-10.495,10.506-10.495h35.62c-5.792,0-10.495,4.692-10.495,10.495v18.136&#10;&#9;&#9;&#9;C293.212,499.612,297.914,504.315,303.706,504.315z"/><path style="fill:none;stroke:#000000;stroke-width:15;stroke-linecap:round;stroke-linejoin:round;stroke-miterlimit:10;" d="&#10;&#9;&#9;&#9;M362.14,502.6c-1.65,1.08-3.63,1.71-5.75,1.71h-88.31c-5.8,0-10.5-4.7-10.5-10.5v-18.14c0-5.8,4.7-10.5,10.5-10.5h55.24"/></g><g><path style="fill:#FFE177;" d="M324.8,426.035h-88.313c-5.799,0-10.5,4.701-10.5,10.5v18.138c0,5.799,4.701,10.5,10.5,10.5H324.8&#10;&#9;&#9;&#9;c5.799,0,10.5-4.701,10.5-10.5v-18.138C335.3,430.736,330.599,426.035,324.8,426.035z"/><path style="fill:#FECE85;" d="M272.113,465.177h-35.62c-5.803,0-10.506-4.702-10.506-10.506v-18.136&#10;&#9;&#9;&#9;c0-5.803,4.702-10.495,10.506-10.495h35.62c-5.792,0-10.495,4.692-10.495,10.495v18.136&#10;&#9;&#9;&#9;C261.618,460.475,266.32,465.177,272.113,465.177z"/><path style="fill:none;stroke:#000000;stroke-width:15;stroke-linecap:round;stroke-linejoin:round;stroke-miterlimit:10;" d="&#10;&#9;&#9;&#9;M326.38,426.15c-0.52-0.08-1.04-0.12-1.58-0.12h-56.72h-31.59c-5.8,0-10.5,4.71-10.5,10.5v18.14c0,5.8,4.7,10.5,10.5,10.5h86.83"/></g><g><path style="fill:#FFE177;" d="M356.393,386.897H268.08c-5.799,0-10.5,4.701-10.5,10.5v18.138c0,5.799,4.701,10.5,10.5,10.5&#10;&#9;&#9;&#9;h88.313c5.799,0,10.5-4.701,10.5-10.5v-18.138C366.893,391.598,362.192,386.897,356.393,386.897z"/><path style="fill:#FECE85;" d="M303.706,426.039h-35.62c-5.803,0-10.506-4.702-10.506-10.506v-18.136&#10;&#9;&#9;&#9;c0-5.803,4.702-10.495,10.506-10.495h35.62c-5.792,0-10.495,4.692-10.495,10.495v18.136&#10;&#9;&#9;&#9;C293.212,421.337,297.914,426.039,303.706,426.039z"/><path style="fill:none;stroke:#000000;stroke-width:15;stroke-linecap:round;stroke-linejoin:round;stroke-miterlimit:10;" d="&#10;&#9;&#9;&#9;M366.76,395.74c-0.8-5.01-5.13-8.84-10.37-8.84h-88.31c-5.8,0-10.5,4.7-10.5,10.5v18.14c0,5.79,4.7,10.49,10.5,10.49h58.36"/></g><g><path style="fill:#FFE177;" d="M329.651,347.759h-88.313c-5.799,0-10.5,4.701-10.5,10.5v18.138c0,5.799,4.701,10.5,10.5,10.5&#10;&#9;&#9;&#9;h88.313c5.799,0,10.5-4.701,10.5-10.5v-18.138C340.151,352.46,335.45,347.759,329.651,347.759z"/><path style="fill:#FECE85;" d="M276.964,386.901h-35.62c-5.803,0-10.506-4.702-10.506-10.506v-18.136&#10;&#9;&#9;&#9;c0-5.803,4.702-10.495,10.506-10.495h35.62c-5.792,0-10.495,4.692-10.495,10.495v18.136&#10;&#9;&#9;&#9;C266.469,382.199,271.171,386.901,276.964,386.901z"/><path style="fill:none;stroke:#000000;stroke-width:15;stroke-linecap:round;stroke-linejoin:round;stroke-miterlimit:10;" d="&#10;&#9;&#9;&#9;M294.46,347.76h35.19c5.8,0,10.5,4.7,10.5,10.5v18.14c0,5.8-4.7,10.5-10.5,10.5h-88.31c-5.8,0-10.5-4.7-10.5-10.5v-18.14&#10;&#9;&#9;&#9;c0-5.8,4.7-10.5,10.5-10.5h18.12"/></g><g><path style="fill:#FFE177;" d="M197.977,403.274l-44.454,76.308c-2.919,5.011-1.223,11.439,3.787,14.358l15.673,9.13&#10;&#9;&#9;&#9;c5.011,2.919,11.439,1.223,14.358-3.787l44.455-76.308c2.919-5.011,1.223-11.439-3.787-14.358l-15.673-9.13&#10;&#9;&#9;&#9;C207.324,396.568,200.896,398.263,197.977,403.274z"/><path style="fill:#FECE85;" d="M205.277,468.502l-17.93,30.778c-2.921,5.014-9.351,6.711-14.366,3.789l-15.671-9.129&#10;&#9;&#9;&#9;c-5.014-2.921-6.701-9.346-3.78-14.36l17.93-30.778c-2.916,5.005-1.229,11.43,3.785,14.351l15.671,9.129&#10;&#9;&#9;&#9;C195.931,475.203,202.361,473.507,205.277,468.502z"/><path style="fill:none;stroke:#000000;stroke-width:15;stroke-linecap:round;stroke-linejoin:round;stroke-miterlimit:10;" d="&#10;&#9;&#9;&#9;M197.977,403.274l-44.454,76.308c-2.919,5.011-1.223,11.439,3.787,14.358l15.673,9.13c5.011,2.919,11.439,1.223,14.358-3.787&#10;&#9;&#9;&#9;l44.455-76.308c2.919-5.011,1.223-11.439-3.787-14.358l-15.673-9.13C207.324,396.568,200.896,398.263,197.977,403.274z"/></g><g><path style="fill:#FFE177;" d="M150.916,413.411L70.53,449.98c-5.278,2.401-7.611,8.627-5.21,13.905l7.511,16.51&#10;&#9;&#9;&#9;c2.401,5.278,8.627,7.611,13.905,5.21l80.386-36.569c5.278-2.401,7.611-8.627,5.21-13.905l-7.511-16.51&#10;&#9;&#9;&#9;C162.42,413.342,156.194,411.01,150.916,413.411z"/><path style="fill:#FECE85;" d="M119.166,470.857l-32.423,14.75c-5.282,2.403-11.51,0.07-13.913-5.212l-7.51-16.508&#10;&#9;&#9;&#9;c-2.403-5.282-0.066-11.5,5.217-13.903l32.423-14.75c-5.272,2.399-7.61,8.616-5.207,13.898l7.51,16.508&#10;&#9;&#9;&#9;C107.667,470.922,113.894,473.255,119.166,470.857z"/><path style="fill:none;stroke:#000000;stroke-width:15;stroke-linecap:round;stroke-linejoin:round;stroke-miterlimit:10;" d="&#10;&#9;&#9;&#9;M150.916,413.411L70.53,449.98c-5.278,2.401-7.611,8.627-5.21,13.905l7.511,16.51c2.401,5.278,8.627,7.611,13.905,5.21&#10;&#9;&#9;&#9;l80.386-36.569c5.278-2.401,7.611-8.627,5.21-13.905l-7.511-16.51C162.42,413.342,156.194,411.01,150.916,413.411z"/></g><g><circle style="fill:#FFE177;" cx="375.736" cy="449.654" r="54.656"/><path style="fill:#FECE85;" d="M385.331,503.464c-3.11,0.556-6.327,0.844-9.597,0.844c-30.191,0-54.654-24.474-54.654-54.654&#10;&#9;&#9;&#9;c0-30.191,24.463-54.654,54.654-54.654c3.27,0,6.487,0.289,9.597,0.844c-25.607,4.532-45.057,26.9-45.057,53.81&#10;&#9;&#9;&#9;C340.274,476.565,359.724,498.933,385.331,503.464z"/><circle style="fill:none;stroke:#000000;stroke-width:15;stroke-linecap:round;stroke-linejoin:round;stroke-miterlimit:10;" cx="375.736" cy="449.654" r="54.656"/><g><path style="fill:none;stroke:#000000;stroke-width:15;stroke-linecap:round;stroke-linejoin:round;stroke-miterlimit:10;" d="&#10;&#9;&#9;&#9;&#9;M385.079,428.507c-0.897-0.747-6.037-4.622-13.577-2.351c-7.639,2.301-9.537,12.754-4.345,16.826&#10;&#9;&#9;&#9;&#9;c2.981,2.338,7.466,4.26,13.511,6.397c13.529,4.782,8.528,23.862-5.234,23.954c-5.371,0.036-7.881-0.305-12.599-3.391"/><line style="fill:none;stroke:#000000;stroke-width:15;stroke-linecap:round;stroke-linejoin:round;stroke-miterlimit:10;" x1="375.43" y1="480.295" x2="375.43" y2="473.332"/><line style="fill:none;stroke:#000000;stroke-width:15;stroke-linecap:round;stroke-linejoin:round;stroke-miterlimit:10;" x1="375.43" y1="425.469" x2="375.43" y2="419.013"/></g></g></g></svg>