<?xml version="1.0" encoding="UTF-8"?><svg xmlns="http://www.w3.org/2000/svg" id="Layer_2" data-name="Layer 2" viewBox="0 0 104.31 76"><defs><style> .cls-1 { fill: #fbc218; } .cls-2 { fill: #fff; } .cls-3, .cls-4 { fill: #fdb716; } .cls-4 { fill-rule: evenodd; } .cls-5 { fill: #11375c; } </style></defs><g id="Layer_1-2" data-name="Layer 1"><g><g><path class="cls-2" d="M.45,53.58C.15,53.58,0,53.43,0,53.13v-1.72c0-.24.1-.42.3-.53l5.9-3.49c.76-.46.95-.64.95-1.05,0-.55-.25-.71-.98-.71h-2.64c-.64,0-.88.16-.88,1.01v.06c0,.3-.15.45-.45.45H.45C.15,47.13,0,47.06,0,46.92v-.21C0,44.41.98,43.09,3.52,43.09h2.72c2.35,0,3.52,1.01,3.52,3.03,0,.89-.12,1.44-.64,1.99-.25.27-.53.5-.83.7-.3.19-.74.46-1.34.8l-2.54,1.44h4.87c.3,0,.45.15.45.45v1.63c0,.3-.15.45-.45.45H.45Z"/><path class="cls-2" d="M17.97,53.58c-.3,0-.45-.15-.45-.45v-1.57h-6.36c-.3,0-.45-.15-.45-.45v-1.62c0-.22.07-.4.24-.55l6.33-5.64c.15-.13.33-.21.55-.21h1.78c.3,0,.45.15.45.45v5.63h.92c.3,0,.45.15.45.45v1.5c0,.3-.15.45-.45.45h-.92v1.57c0,.3-.15.45-.45.45h-1.65ZM13.93,49.17h3.59v-3.16l-3.59,3.16Z"/><path class="cls-2" d="M32.89,47.31c0,1.86-.65,3.06-1.96,3.58l1.5,2.15c.19.31.07.53-.28.53h-2c-.25,0-.43-.1-.53-.3l-1.31-2.09h-2.85v1.95c0,.3-.15.45-.45.45h-1.75c-.3,0-.45-.15-.45-.45v-9.59c0-.3.15-.45.45-.45h5.39c2.84,0,4.25,1.31,4.25,3.94v.28ZM25.45,45.62v3.07h2.97c1.26,0,1.81-.24,1.81-1.41v-.24c0-1.17-.52-1.43-1.81-1.43h-2.97Z"/><path class="cls-2" d="M38.58,53.58c-.3,0-.45-.15-.45-.45v-9.59c0-.3.15-.45.45-.45h7.97c.3,0,.45.15.45.45v1.63c0,.3-.15.45-.45.45h-5.79v1.54h3.52c.3,0,.45.15.45.45v1.4c0,.3-.15.45-.45.45h-3.52v1.6h5.79c.3,0,.45.15.45.45v1.63c0,.3-.15.45-.45.45h-7.97Z"/><path class="cls-2" d="M48.93,53.58c-.3,0-.45-.15-.45-.45v-9.59c0-.3.15-.45.45-.45h1.71c.22,0,.4.09.55.27l4.83,6.16v-5.98c0-.3.15-.45.45-.45h1.75c.3,0,.45.15.45.45v9.59c0,.3-.15.45-.45.45h-1.71c-.22,0-.4-.09-.55-.27l-4.83-6.13v5.95c0,.3-.15.45-.45.45h-1.75Z"/><path class="cls-2" d="M60.97,53.58c-.3,0-.45-.15-.45-.45v-9.59c0-.3.15-.45.45-.45h7.97c.3,0,.45.15.45.45v1.63c0,.3-.15.45-.45.45h-5.79v1.54h3.52c.3,0,.45.15.45.45v1.4c0,.3-.15.45-.45.45h-3.52v1.6h5.79c.3,0,.45.15.45.45v1.63c0,.3-.15.45-.45.45h-7.97Z"/><path class="cls-2" d="M80.96,47.31c0,1.86-.65,3.06-1.96,3.58l1.5,2.15c.19.31.07.53-.28.53h-2c-.25,0-.43-.1-.53-.3l-1.31-2.09h-2.85v1.95c0,.3-.15.45-.45.45h-1.75c-.3,0-.45-.15-.45-.45v-9.59c0-.3.15-.45.45-.45h5.39c2.84,0,4.25,1.31,4.25,3.94v.28ZM73.52,45.62v3.07h2.97c1.26,0,1.81-.24,1.81-1.41v-.24c0-1.17-.52-1.43-1.81-1.43h-2.97Z"/><path class="cls-2" d="M85.7,53.58c-2.3,0-3.52-1.41-3.52-3.61v-3.25c0-2.21,1.22-3.62,3.52-3.62h3.46c2.14,0,3.34,1.16,3.5,3.07.01.31-.13.46-.45.46h-1.75c-.25,0-.42-.15-.46-.45-.1-.46-.33-.56-.85-.56h-3.46c-.64,0-.88.16-.88,1.01v3.43c0,.82.28.99.88.99h3.46c.59,0,.88-.18.88-.99v-.34h-1.9c-.3,0-.45-.15-.45-.45v-1.38c0-.3.15-.45.45-.45h4.1c.3,0,.45.15.45.45v2.08c0,2.2-1.22,3.61-3.52,3.61h-3.46Z"/><path class="cls-2" d="M97.78,53.58c-.3,0-.45-.15-.45-.45v-2.47l-4.25-7.04c-.18-.31-.06-.53.3-.53h2.03c.25,0,.43.1.53.31l2.7,4.78,2.73-4.78c.1-.21.28-.31.53-.31h2c.36,0,.48.22.3.53l-4.25,7.04v2.47c0,.3-.15.45-.45.45h-1.75Z"/></g><rect class="cls-3" y="56.76" width="104.31" height="11.91" rx="3.48" ry="3.48"/><g><path class="cls-5" d="M16.02,65.46c-.8,0-1.62-.28-2.25-.85l.69-.83c.48.39.98.64,1.59.64.48,0,.77-.19.77-.5h0c0-.31-.18-.46-1.07-.69-1.07-.27-1.76-.57-1.76-1.62v-.02c0-.96.77-1.6,1.86-1.6.77,0,1.43.24,1.97.67l-.61.88c-.47-.33-.93-.52-1.38-.52s-.68.2-.68.46v.02c0,.35.23.46,1.15.7,1.08.28,1.68.67,1.68,1.59v.02c0,1.05-.8,1.65-1.95,1.65Z"/><path class="cls-5" d="M22.32,65.47c-1.64,0-2.81-1.22-2.81-2.73v-.02c0-1.51,1.19-2.75,2.83-2.75s2.81,1.22,2.81,2.73h0c0,1.52-1.19,2.76-2.83,2.76ZM23.93,62.73c0-.91-.67-1.67-1.61-1.67s-1.59.74-1.59,1.65h0c0,.92.67,1.68,1.61,1.68s1.59-.74,1.59-1.65v-.02Z"/><path class="cls-5" d="M26.95,65.38v-5.31h1.17v4.25h2.65v1.06h-3.81Z"/><path class="cls-5" d="M36.35,65.38l-.49-1.19h-2.24l-.49,1.19h-1.19l2.27-5.35h1.08l2.27,5.35h-1.22ZM34.75,61.44l-.71,1.72h1.41l-.71-1.72Z"/><path class="cls-5" d="M42.38,65.38l-1.14-1.7h-.92v1.7h-1.17v-5.31h2.43c1.25,0,2,.66,2,1.75v.02c0,.86-.46,1.4-1.14,1.65l1.3,1.9h-1.37ZM42.4,61.88c0-.5-.35-.76-.92-.76h-1.16v1.52h1.18c.57,0,.9-.3.9-.75v-.02Z"/><path class="cls-5" d="M52.01,65.49l-.61-.62c-.43.36-.94.59-1.55.59-1.02,0-1.78-.59-1.78-1.54,0-.68.36-1.16,1.03-1.46-.26-.37-.37-.7-.37-1.07,0-.74.58-1.4,1.61-1.4.9,0,1.49.58,1.49,1.34,0,.72-.46,1.14-1.12,1.4l.71.71c.17-.27.35-.58.52-.91l.86.47c-.2.37-.43.77-.7,1.12l.78.78-.86.6ZM49.72,63.17c-.35.18-.49.44-.49.71,0,.38.31.63.74.63.27,0,.52-.11.77-.3l-1.02-1.03ZM50.3,60.89c-.31,0-.52.22-.52.55,0,.24.09.42.31.67.46-.17.71-.37.71-.71,0-.32-.2-.5-.5-.5Z"/><path class="cls-5" d="M57.51,65.38v-5.31h1.17v4.25h2.65v1.06h-3.81Z"/><path class="cls-5" d="M63.01,65.38v-5.31h1.17v5.31h-1.17Z"/><path class="cls-5" d="M68.82,65.47c-1.65,0-2.79-1.16-2.79-2.73v-.02c0-1.51,1.18-2.75,2.78-2.75.96,0,1.53.26,2.09.73l-.74.89c-.41-.34-.77-.54-1.39-.54-.85,0-1.52.75-1.52,1.65h0c0,.99.67,1.7,1.61,1.7.43,0,.8-.11,1.1-.32v-.76h-1.17v-1.01h2.31v2.3c-.55.46-1.3.84-2.27.84Z"/><path class="cls-5" d="M76.3,65.38v-2.13h-2.15v2.13h-1.17v-5.31h1.17v2.1h2.15v-2.1h1.17v5.31h-1.17Z"/><path class="cls-5" d="M81.9,61.15v4.23h-1.17v-4.23h-1.62v-1.08h4.4v1.08h-1.62Z"/><path class="cls-5" d="M86.95,65.46c-.8,0-1.62-.28-2.25-.85l.69-.83c.48.39.98.64,1.59.64.48,0,.77-.19.77-.5h0c0-.31-.18-.46-1.07-.69-1.07-.27-1.76-.57-1.76-1.62v-.02c0-.96.77-1.6,1.86-1.6.77,0,1.43.24,1.97.67l-.61.88c-.47-.33-.93-.52-1.38-.52s-.68.2-.68.46v.02c0,.35.23.46,1.14.7,1.08.28,1.68.67,1.68,1.59v.02c0,1.05-.8,1.65-1.95,1.65Z"/></g><g><path class="cls-2" d="M21.18,72.01h2.32l-.09.33h-1.95l-.3,1.11h1.74l-.09.33h-1.74l-.31,1.13h1.97l-.09.33h-2.34l.87-3.24Z"/><path class="cls-2" d="M23.91,72.86h.36l-.1.39c.22-.25.47-.44.83-.44.46,0,.76.29.76.74,0,.11-.03.25-.06.37l-.35,1.33h-.36l.36-1.35c.02-.08.04-.19.04-.27,0-.31-.2-.5-.54-.5-.37,0-.74.32-.86.77l-.36,1.35h-.36l.64-2.39Z"/><path class="cls-2" d="M26.6,74.27c0,.43.28.72.72.72.31,0,.52-.11.73-.28l.19.24c-.24.2-.52.36-.94.36-.63,0-1.06-.41-1.06-1.02,0-.73.59-1.48,1.39-1.48.61,0,.92.42.92.92,0,.16-.03.31-.08.45h-1.87s0,.06,0,.1ZM28.19,73.91s.02-.1.02-.18c0-.33-.19-.62-.6-.62-.47,0-.83.36-.96.8h1.54Z"/><path class="cls-2" d="M29.46,72.86h.36l-.16.62c.29-.42.66-.69,1.14-.67l-.1.38h-.02c-.52,0-1.04.38-1.23,1.1l-.25.94h-.36l.64-2.39Z"/><path class="cls-2" d="M30.52,75.58l.22-.25c.25.22.58.36.94.36.3,0,.53-.1.67-.25.15-.14.23-.33.3-.57l.06-.24c-.24.25-.52.43-.92.43-.5,0-.97-.33-.97-.9,0-.8.67-1.35,1.34-1.35.51,0,.74.29.88.57l.14-.52h.36l-.55,2.05c-.1.37-.22.58-.39.75-.22.22-.52.34-.92.34-.44,0-.87-.16-1.17-.42ZM32.93,73.8c0-.35-.28-.68-.73-.68-.51,0-.98.42-.98.99,0,.43.33.64.7.64.54,0,1.02-.47,1.02-.96Z"/><path class="cls-2" d="M34.38,72.86h.36l-.64,2.39h-.36l.64-2.39ZM34.6,71.94h.41l-.11.39h-.41l.11-.39Z"/><path class="cls-2" d="M34.82,75.02l2.04-1.86h-1.48l.08-.3h2l-.06.23-2.04,1.86h1.56l-.08.3h-2.07l.06-.23Z"/><path class="cls-2" d="M38.14,72.86h.36l-.64,2.39h-.36l.64-2.39ZM38.36,71.94h.41l-.11.39h-.41l.11-.39Z"/><path class="cls-2" d="M39.32,72.86h.36l-.1.39c.22-.25.47-.44.83-.44.46,0,.76.29.76.74,0,.11-.03.25-.06.37l-.35,1.33h-.36l.36-1.35c.02-.08.04-.19.04-.27,0-.31-.2-.5-.54-.5-.37,0-.74.32-.86.77l-.36,1.35h-.36l.64-2.39Z"/><path class="cls-2" d="M41.38,75.58l.22-.25c.25.22.58.36.94.36.3,0,.53-.1.67-.25.15-.14.23-.33.3-.57l.06-.24c-.24.25-.52.43-.92.43-.5,0-.97-.33-.97-.9,0-.8.67-1.35,1.34-1.35.51,0,.74.29.88.57l.14-.52h.36l-.55,2.05c-.1.37-.22.58-.39.75-.22.22-.52.34-.92.34-.44,0-.87-.16-1.17-.42ZM43.79,73.8c0-.35-.28-.68-.73-.68-.51,0-.98.42-.98.99,0,.43.33.64.7.64.54,0,1.02-.47,1.02-.96Z"/><path class="cls-2" d="M45.96,74.64c0-.54.45-.86,1.06-.86.32,0,.62.06.85.13v-.06c.03-.07.05-.16.05-.22,0-.31-.21-.49-.65-.49-.25,0-.46.05-.67.12l-.06-.3c.24-.09.48-.14.79-.14.6,0,.94.28.94.74,0,.1-.02.22-.05.33l-.36,1.35h-.35l.1-.37c-.22.25-.51.42-.89.42-.4,0-.76-.24-.76-.66ZM47.77,74.31l.05-.17c-.21-.06-.48-.11-.78-.11-.43,0-.72.23-.72.56,0,.25.2.42.51.42.4,0,.82-.29.94-.71Z"/><path class="cls-2" d="M50.5,74.71l-.14.54h-.36l.91-3.38h.36l-.38,1.4c.23-.26.52-.46.91-.46.54,0,.95.4.95,1.01,0,.85-.64,1.48-1.34,1.48-.49,0-.76-.28-.9-.59ZM52.36,73.85c0-.44-.27-.73-.68-.73-.53,0-1.06.54-1.06,1.12,0,.42.3.74.74.74.57,0,1-.53,1-1.14Z"/><path class="cls-2" d="M53.69,72.86h.36l-.16.62c.29-.42.66-.69,1.14-.67l-.1.38h-.02c-.52,0-1.04.38-1.23,1.1l-.25.94h-.36l.64-2.39Z"/><path class="cls-2" d="M55.58,72.86h.36l-.64,2.39h-.36l.64-2.39ZM55.8,71.94h.41l-.11.39h-.41l.11-.39Z"/><path class="cls-2" d="M55.99,75.58l.22-.25c.25.22.58.36.94.36.3,0,.53-.1.67-.25.15-.14.23-.33.3-.57l.07-.24c-.24.25-.52.43-.92.43-.5,0-.97-.33-.97-.9,0-.8.67-1.35,1.34-1.35.51,0,.74.29.88.57l.14-.52h.36l-.54,2.05c-.1.37-.22.58-.39.75-.22.22-.52.34-.92.34-.44,0-.87-.16-1.17-.42ZM58.4,73.8c0-.35-.28-.68-.73-.68-.51,0-.99.42-.99.99,0,.43.33.64.7.64.54,0,1.02-.47,1.02-.96Z"/><path class="cls-2" d="M60.08,71.87h.36l-.37,1.37c.22-.25.47-.44.83-.44.46,0,.76.29.76.74,0,.11-.03.25-.06.37l-.35,1.33h-.36l.36-1.35c.02-.08.04-.19.04-.27,0-.31-.2-.5-.54-.5-.37,0-.74.32-.87.77l-.36,1.35h-.36l.91-3.38Z"/><path class="cls-2" d="M62.28,74.82c0-.08.01-.18.03-.25l.37-1.4h-.33l.08-.31h.33l.19-.72h.35l-.19.72h.75l-.08.31h-.75l-.37,1.38c0,.06-.02.12-.02.18,0,.17.12.25.33.25.11,0,.22-.02.35-.07l-.09.32c-.12.05-.24.07-.38.07-.34,0-.58-.16-.58-.47Z"/><path class="cls-2" d="M64.31,74.27c0,.43.28.72.72.72.31,0,.52-.11.74-.28l.18.24c-.24.2-.52.36-.94.36-.63,0-1.06-.41-1.06-1.02,0-.73.59-1.48,1.39-1.48.61,0,.92.42.92.92,0,.16-.03.31-.08.45h-1.87s0,.06,0,.1ZM65.9,73.91s.02-.1.02-.18c0-.33-.18-.62-.6-.62-.47,0-.83.36-.96.8h1.54Z"/><path class="cls-2" d="M67.17,72.86h.36l-.16.62c.29-.42.66-.69,1.14-.67l-.1.38h-.02c-.52,0-1.04.38-1.23,1.1l-.25.94h-.36l.64-2.39Z"/><path class="cls-2" d="M70.47,73.17h-.33l.08-.31h.33l.08-.29c.12-.48.41-.71.82-.71.18,0,.35.04.48.1l-.08.3c-.14-.06-.25-.1-.39-.1-.23,0-.4.14-.48.45l-.06.23h.78l-.09.31h-.78l-.56,2.08h-.36l.56-2.08Z"/><path class="cls-2" d="M71.7,74.56c0-.11.03-.25.06-.37l.35-1.33h.36l-.37,1.35c-.02.08-.03.19-.03.27,0,.31.2.5.53.5.37,0,.74-.32.87-.78l.36-1.34h.36l-.64,2.39h-.36l.11-.39c-.22.24-.47.44-.84.44-.46,0-.76-.29-.76-.74Z"/><path class="cls-2" d="M74.62,74.82c0-.08.01-.18.03-.25l.37-1.4h-.33l.08-.31h.33l.19-.72h.35l-.19.72h.75l-.08.31h-.75l-.37,1.38c0,.06-.02.12-.02.18,0,.17.12.25.33.25.11,0,.22-.02.35-.07l-.09.32c-.12.05-.24.07-.38.07-.34,0-.58-.16-.58-.47Z"/><path class="cls-2" d="M76.39,74.56c0-.11.03-.25.06-.37l.35-1.33h.36l-.37,1.35c-.02.08-.03.19-.03.27,0,.31.2.5.53.5.37,0,.74-.32.87-.78l.36-1.34h.36l-.64,2.39h-.36l.11-.39c-.22.24-.47.44-.84.44-.46,0-.76-.29-.76-.74Z"/><path class="cls-2" d="M79.67,72.86h.36l-.16.62c.29-.42.66-.69,1.14-.67l-.1.38h-.02c-.52,0-1.04.38-1.23,1.1l-.25.94h-.36l.64-2.39Z"/><path class="cls-2" d="M81.37,74.27c0,.43.28.72.72.72.31,0,.52-.11.73-.28l.19.24c-.24.2-.52.36-.94.36-.63,0-1.06-.41-1.06-1.02,0-.73.59-1.48,1.39-1.48.61,0,.92.42.92.92,0,.16-.03.31-.08.45h-1.87s0,.06,0,.1ZM82.96,73.91s.02-.1.02-.18c0-.33-.18-.62-.6-.62-.47,0-.83.36-.96.8h1.54Z"/></g><g><rect class="cls-1" x="87.77" y="47.53" width="4.82" height="2.1" rx=".24" ry=".24"/><path class="cls-5" d="M92.35,47.61c.08,0,.15.07.15.15v1.63c0,.08-.07.15-.15.15h-4.34c-.08,0-.15-.07-.15-.15v-1.63c0-.08.07-.15.15-.15h4.34M92.35,47.44h-4.34c-.18,0-.32.14-.32.32v1.63c0,.18.14.32.32.32h4.34c.18,0,.32-.14.32-.32v-1.63c0-.18-.14-.32-.32-.32h0Z"/></g><g><rect class="cls-2" x="34.41" width="16.3" height="16.3" rx="3.48" ry="3.48"/><g><path class="cls-4" d="M69.77,8.73c-.29,0-.52-.23-.53-.51h-5.34v7.79c.49-.13.96-.31,1.41-.53l-.05-.09c-.15-.26-.06-.58.2-.73.26-.15.58-.06.73.2l.05.09c.46-.3.89-.65,1.28-1.04.37-.37.7-.76.99-1.19l-.09-.05c-.25-.15-.34-.48-.19-.73.15-.25.48-.34.73-.19l.09.05c.47-.93.76-1.97.84-3.07h-.1ZM54.23,8.23c-.06.23-.27.41-.52.4h-.1c.06,1.1.34,2.14.8,3.08l.09-.05c.26-.15.58-.06.73.2.15.26.06.58-.2.73l-.09.05c.59.89,1.35,1.66,2.23,2.26l.05-.09c.15-.25.48-.34.73-.19.25.15.34.48.19.73l-.05.09c.93.47,1.97.76,3.07.84v-.11c0-.29.24-.53.54-.53.29,0,.53.24.53.54v.11c.45-.03.9-.09,1.33-.19v-7.87h-9.32ZM62.33.02v.1c0,.29-.24.53-.54.53-.3,0-.53-.24-.53-.54V.01c-1.1.06-2.14.34-3.07.8l.05.09c.15.26.06.58-.2.73s-.58.06-.73-.2l-.05-.09c-.46.3-.89.65-1.28,1.04-.36.36-.69.76-.98,1.19l.09.05c.25.15.34.48.19.73-.15.25-.48.34-.73.19l-.09-.05c-.47.93-.76,1.97-.84,3.06h.1c.22,0,.4.13.49.32h9.35V.2c-.4-.09-.81-.15-1.22-.18Z"/><path class="cls-4" d="M69.88,7.67h-.1c-.18,0-.34.08-.44.22h-5.45V.29c.52.14,1.02.33,1.5.57l-.05.09c-.15.25-.06.58.19.73.25.15.58.06.73-.19l.05-.09c.43.29.83.62,1.19.99.39.39.74.81,1.04,1.27l-.09.05c-.26.15-.35.47-.2.73.15.26.47.35.73.2l.09-.05c.46.94.74,1.98.8,3.08Z"/></g><rect class="cls-2" x="34.41" y="19.65" width="16.3" height="16.3" rx="3.48" ry="3.48"/><rect class="cls-2" x="53.59" y="19.65" width="16.3" height="16.3" rx="3.48" ry="3.48"/></g></g></g></svg>