<svg xmlns="http://www.w3.org/2000/svg" id="Layer_1" height="512" viewBox="0 0 512 512" width="512"><path d="m129 128.76c-21.09 0-38.2 17.11-38.2 38.2 0 17.88 12.3 32.88 28.9 37.02h.01l47.48-37.29c-.15-20.97-17.2-37.93-38.19-37.93z" fill="#f9d438"/><g><path d="m24.28 398.46h471.72v30h-471.72z" fill="#c2684f"/><path d="m482.03 328.99v2.24c0 19.02-15.42 34.44-34.44 34.44h-2.24v-2.24c0-19.02 15.42-34.44 34.44-34.44z" fill="#4ca987"/><path d="m445.35 345.96v2.24h-2.24c-19.02 0-34.44-15.42-34.44-34.44v-2.24h2.24c19.02 0 34.44 15.42 34.44 34.44z" fill="#5fcda4"/><path d="m412.47 242.84 11.97 37.39h-107l-5.75-37.39z" fill="#49bdff"/><path d="m400.07 204.08 12.4 38.76h-100.78l-5.95-38.76h94.32z" fill="#3090fc"/><path d="m388.1 166.69 11.97 37.39h-.01-94.32l-5.75-37.39z" fill="#49bdff"/><path d="m377.02 328.99v2.24c0 19.02-15.42 34.44-34.44 34.44h-2.24v-2.24c0-19.02 15.42-34.44 34.44-34.44z" fill="#4ca987"/><path d="m340.34 345.96v2.24h-2.24c-19.03 0-34.45-15.42-34.45-34.44v-2.24h2.24c19.03 0 34.45 15.42 34.45 34.44z" fill="#5fcda4"/><path d="m311.69 242.84h-103.5l-5.75 37.39h115z" fill="#3090fc"/><path d="m305.74 204.08 5.95 38.76h-103.5l5.95-38.76z" fill="#49bdff"/><path d="m299.99 166.69 5.75 37.39h-91.6l5.75-37.39z" fill="#3090fc"/><path d="m242.18 280.23h35.92v118.23h-35.92z" fill="#b0b5ca"/><path d="m131.38 166.69-11.67 37.29-.03.1h94.46l5.75-37.39z" fill="#49bdff"/><path d="m214.14 204.08-5.95 38.76h-100.65l12.13-38.76h.01z" fill="#3090fc"/><path d="m208.19 242.84-5.75 37.39h-106.6l11.7-37.39z" fill="#49bdff"/><path d="m196.37 328.99v2.24c0 19.02-15.42 34.44-34.44 34.44h-2.24v-2.24c0-19.02 15.42-34.44 34.44-34.44z" fill="#4ca987"/><path d="m159.69 345.96v2.24h-2.24c-19.02 0-34.44-15.42-34.44-34.44v-2.24h2.24c19.02 0 34.44 15.42 34.44 34.44z" fill="#5fcda4"/><path d="m89.37 328.99v2.24c0 19.02-15.42 34.44-34.45 34.44h-2.24v-2.24c0-19.02 15.42-34.44 34.45-34.44z" fill="#4ca987"/><path d="m52.68 345.96v2.24h-2.24c-19.02 0-34.44-15.42-34.44-34.44v-2.24h2.24c19.02 0 34.44 15.42 34.44 34.44z" fill="#5fcda4"/></g><path d="m24.28 398.46h20v30h-20z" fill="#994430"/><path d="m151.38 166.69h-20l-11.67 37.29-.03.1h20l.03-.1z" fill="#2ea4d8"/><path d="m119.68 204.08h-.01l-12.13 38.76h20l12.13-38.76z" fill="#2180d6"/><path d="m107.54 242.84-11.7 37.39h20l11.7-37.39z" fill="#2ea4d8"/><g fill="#284268"><path d="m220.876 316.375c2.762 0 5-2.238 5-5v-10.912c0-2.762-2.238-5-5-5s-5 2.238-5 5v10.912c0 2.762 2.238 5 5 5z"/><path d="m215.876 378.897c0 2.762 2.238 5 5 5s5-2.238 5-5v-45.844c0-2.762-2.238-5-5-5s-5 2.238-5 5z"/><path d="m123.995 83.54v23.872c0 2.762 2.238 5 5 5s5-2.238 5-5v-23.872c0-2.762-2.238-5-5-5s-5 2.238-5 5z"/><path d="m74.454 166.953c0-2.762-2.238-5-5-5h-23.872c-2.762 0-5 2.238-5 5s2.238 5 5 5h23.872c2.762 0 5-2.238 5-5z"/><path d="m70.014 230.936c1.279 0 2.56-.488 3.535-1.465l16.88-16.88c1.953-1.952 1.953-5.118 0-7.07-1.951-1.953-5.119-1.953-7.07 0l-16.88 16.88c-1.953 1.952-1.953 5.118 0 7.07.976.977 2.256 1.465 3.535 1.465z"/><path d="m184.442 104.436-16.88 16.881c-1.953 1.952-1.953 5.118 0 7.07.976.977 2.256 1.465 3.535 1.465s2.56-.488 3.535-1.465l16.88-16.881c1.953-1.952 1.953-5.118 0-7.07-1.951-1.953-5.119-1.953-7.07 0z"/><path d="m90.429 128.387c1.953-1.952 1.953-5.118 0-7.07l-16.88-16.881c-1.951-1.953-5.119-1.953-7.07 0-1.953 1.952-1.953 5.118 0 7.07l16.88 16.881c.976.977 2.256 1.465 3.535 1.465s2.56-.488 3.535-1.465z"/><path d="m496 393.46h-45.648v-22.898c20.464-1.423 36.683-18.516 36.683-39.336v-2.24c0-2.762-2.238-5-5-5h-2.239c-12.125 0-22.986 5.504-30.228 14.14-3.644-18.008-19.592-31.608-38.659-31.608h-2.24c-2.762 0-5 2.238-5 5v2.239c0 20.82 16.218 37.913 36.684 39.336v40.367h-95.016v-22.898c20.465-1.423 36.684-18.516 36.684-39.336v-2.24c0-2.762-2.238-5-5-5h-2.24c-12.125 0-22.986 5.504-30.228 14.14-3.644-18.008-19.592-31.608-38.659-31.608h-2.239c-2.762 0-5 2.238-5 5v2.239c0 20.82 16.218 37.913 36.683 39.336v40.367h-52.234v-108.232h141.335c3.285.089 5.848-3.423 4.762-6.524l-36.34-113.54c-.662-2.07-2.588-3.476-4.762-3.476h-216.243c-2.618-21.317-20.889-37.924-42.861-37.924-23.816 0-43.192 19.376-43.192 43.192 0 18.072 11.134 33.956 27.642 40.286l-22.374 71.493c-1.062 3.096 1.5 6.582 4.771 6.493h141.335v108.232h-72.488v-22.898c20.465-1.423 36.684-18.516 36.684-39.336v-2.24c0-2.762-2.238-5-5-5h-2.24c-12.125 0-22.986 5.504-30.228 14.14-3.644-18.008-19.592-31.608-38.659-31.608h-2.239c-2.762 0-5 2.238-5 5v2.239c0 20.82 16.218 37.913 36.683 39.336v40.367h-97.007v-22.898c20.465-1.423 36.684-18.516 36.684-39.336v-2.24c0-2.762-2.238-5-5-5h-2.24c-12.125 0-22.986 5.504-30.228 14.14-3.644-18.008-19.592-31.608-38.659-31.608h-2.239c-2.762 0-5 2.238-5 5v2.239c0 20.82 16.218 37.913 36.683 39.336v40.367h-23.406c-2.762 0-5 2.238-5 5v30c0 2.762 2.238 5 5 5h471.722c2.762 0 5-2.238 5-5v-30c0-2.762-2.238-5-5-5zm-19.107-59.333c-1.368 13.924-12.476 25.032-26.399 26.4 1.368-13.924 12.476-25.032 26.399-26.4zm-63.083-17.468c13.924 1.368 25.032 12.476 26.4 26.399-13.924-1.368-25.031-12.476-26.4-26.399zm-41.932 17.468c-1.368 13.924-12.477 25.032-26.4 26.4 1.368-13.924 12.477-25.032 26.4-26.4zm-63.083-17.468c13.924 1.368 25.031 12.476 26.399 26.399-13.924-1.368-25.031-12.476-26.399-26.399zm-117.564 17.468c-1.368 13.924-12.477 25.032-26.4 26.4 1.368-13.924 12.477-25.032 26.4-26.4zm-63.083-17.468c13.924 1.368 25.03 12.476 26.399 26.399-13.924-1.369-25.031-12.476-26.399-26.399zm-43.923 17.468c-1.368 13.924-12.477 25.032-26.4 26.4 1.368-13.924 12.477-25.032 26.4-26.4zm-63.083-17.468c13.924 1.368 25.03 12.476 26.399 26.399-13.924-1.369-25.031-12.476-26.399-26.399zm396.444-41.432h-95.857l-4.209-27.391h91.3l8.767 27.391zm-11.967-37.391h-89.636l-4.42-28.759h84.851zm-21.172-66.149 8.767 27.391h-83.188l-4.209-27.391zm-160.271 0h71.522l4.209 27.391h-79.941l4.209-27.391zm77.268 37.391 4.42 28.759h-91.854l4.42-28.759h83.015zm-87.387-37.391-4.209 27.391h-83.37l8.572-27.391h79.008zm-118.255-4.731c0-18.303 14.89-33.192 33.192-33.192 16.465 0 30.233 12.132 32.773 27.924h-30.394c-2.187 0-4.119 1.42-4.771 3.507l-10.163 32.475c-12.351-5.013-20.637-17.047-20.637-30.714zm102.343 108.271h-95.499l8.572-27.391h91.137l-4.209 27.391zm-83.798-37.391 9-28.759h84.964l-4.42 28.759h-89.544zm93.917 37.391 4.209-27.391h94.928l4.209 27.391h-103.347zm64.837 10v108.232h-25.925v-108.232zm217.898 138.232h-461.721v-20h461.722v20z"/></g></svg>