<svg xmlns="http://www.w3.org/2000/svg" viewBox="0 0 512 512"><g id="Layer_1" data-name="Layer 1"><path d="m333.813 247.711v31.351h-62.8a64.423 64.423 0 0 0 -28.667 6.768l-54.767 27.382v157.871c0 27.508-38.293 27.508-38.293 0v-228.744h38.293v35.823l40.746-20.373a95.92 95.92 0 0 1 42.688-10.078z" fill="#f5f5f5"/><path d="m170.752 491.563c-10.28 1.2-21.463-5.613-21.463-20.48v-228.744h13.179v231.911c0 8.25 3.458 14.012 8.284 17.313z" fill="#e6e6e6"/><path d="m482.784 286.877-128.3 17.084a18.257 18.257 0 0 1 -20.667-18.1v-41.626a8.286 8.286 0 0 1 8.286-8.286h138.271a18.257 18.257 0 0 1 18.257 18.257v14.574a18.257 18.257 0 0 1 -15.847 18.097z" fill="#ffdf40"/><path d="m13.369 175.61h311.26v32.008a5.141 5.141 0 0 1 -5.14 5.141h-300.98a5.141 5.141 0 0 1 -5.14-5.141z" fill="#c3d5ef"/><path d="m13.369 175.61h25.988v37.149h-20.848a5.141 5.141 0 0 1 -5.14-5.141z" fill="#b7c8ea"/><path d="m324.629 175.61h-311.26l35.158-155.324h240.945z" fill="#365e7d"/><path d="m39.357 175.61h-25.988l35.158-155.324h16.1z" fill="#2b4d66"/><path d="m194.849 242.813h-51.7a6.233 6.233 0 0 1 -6.233-6.234v-23.82h64.166v23.82a6.233 6.233 0 0 1 -6.233 6.234z" fill="#80eaff"/><path d="m157.721 242.813h-14.572a6.233 6.233 0 0 1 -6.233-6.234v-23.82h14.571v23.82a6.234 6.234 0 0 0 6.234 6.234z" fill="#6cf"/><path d="m480.642 228.48h-138.275a15.3 15.3 0 0 0 -14.86 11.762h-56.224a102.956 102.956 0 0 0 -45.818 10.817l-30.615 15.307v-16.084h5.964a7 7 0 0 0 7-7v-23.055h116.547a7 7 0 0 0 7-7v-37.148a6.982 6.982 0 0 0 -.172-1.545l-35.158-155.325a7 7 0 0 0 -6.827-5.455h-240.946a7 7 0 0 0 -6.827 5.455l-35.157 155.325a6.982 6.982 0 0 0 -.172 1.545v37.148a7 7 0 0 0 7 7h116.546v23.055a7 7 0 0 0 7 7h5.909v220.332c0 18.14 13.153 27.632 26.146 27.632s26.147-9.492 26.147-27.632v-153.545l50.9-25.447a57.371 57.371 0 0 1 25.535-6.029h55.8a25.245 25.245 0 0 0 28.585 24.837l128.3-17.084a25.333 25.333 0 0 0 21.93-25.035v-14.574a25.285 25.285 0 0 0 -25.258-25.257zm-350.006-147.664h76.19l2.828 37.132h-81.846zm-16.869 37.132h-80.331l8.405-37.132h74.759zm17.933-51.132 2.976-39.062h68.106l2.976 39.062zm172.324 51.132h-80.324l-2.828-37.132h74.754zm-93.3 14 2.828 37.131h-89.639l2.828-37.131zm16.869 37.131-2.828-37.131h82.435l8.4 37.131zm64.859-102.263h-72.652l-2.975-39.062h66.786zm-238.601-39.062h66.786l-2.975 39.062h-72.652zm-23.584 104.194h82.433l-2.828 37.131h-88.009zm-10.167 51.131h297.26v23.148h-297.26zm173.713 37.148v16.055h-50.165v-16.055zm45.673 58.873-54.766 27.382a7 7 0 0 0 -3.87 6.261v157.871c0 10.061-6.543 13.632-12.147 13.632s-12.146-3.571-12.146-13.632v-220.332h24.293v27.41a7 7 0 0 0 10.131 6.261l40.745-20.372a88.885 88.885 0 0 1 39.557-9.339h55.8v17.351h-55.8a71.443 71.443 0 0 0 -31.797 7.507zm252.414-10.789a11.29 11.29 0 0 1 -9.77 11.158l-128.3 17.084a11.256 11.256 0 0 1 -12.749-11.153v-41.63a1.287 1.287 0 0 1 1.286-1.285h138.275a11.269 11.269 0 0 1 11.258 11.252zm12.691 87.845a7 7 0 0 1 -9.766 1.615l-23.945-17.146a7 7 0 0 1 8.152-11.383l23.942 17.146a7 7 0 0 1 1.615 9.768zm-78.748-4.577v24.249a7 7 0 0 1 -14 0v-24.249a7 7 0 0 1 14 0zm-57.424-20.722a7 7 0 0 1 -1.615 9.768l-23.943 17.146a7 7 0 0 1 -8.151-11.383l23.942-17.146a7 7 0 0 1 9.765 1.615zm101.014 34.826a7 7 0 1 1 -12.014 7.188l-13.333-22.29a7 7 0 0 1 12.014-7.188zm-73.964-14.759-12.58 22.514a7 7 0 0 1 -12.221-6.828l12.58-22.514a7 7 0 0 1 12.221 6.828z"/></g></svg>