<svg xmlns="http://www.w3.org/2000/svg" id="Capa_1" height="512" viewBox="0 0 512 512" width="512"><g><g><g><path d="m92.838 149.502-48.811 138.135c-3.611 10.219 3.969 20.937 14.807 20.937h57.253l-18.463 87.99c-2.292 10.922 11.804 17.384 18.583 8.519l87.565-114.509c7.902-10.334.534-25.244-12.475-25.244h-45.883l66.022-105.344c5.063-8.079-.744-18.572-10.279-18.572h-96.882c-5.141-.001-9.724 3.24-11.437 8.088z" fill="#ffc250"/><g fill="#e7a52e"><path d="m115.279 406.156c-7.049 7.221-19.842.857-17.654-9.592l18.462-87.99h5.442c4.834 0 8.444 4.446 7.451 9.177l-16.537 78.813c-.829 3.955.491 7.328 2.836 9.592z"/><path d="m137.816 141.414c-5.141 0-9.727 3.239-11.441 8.089l-48.813 138.134c-3.611 10.217 3.972 20.936 14.809 20.936h-33.535c-10.837 0-18.419-10.719-14.809-20.936l48.813-138.134c1.714-4.85 6.294-8.089 11.435-8.089z"/></g></g><g><path d="m213.148 332.578-32.308 91.431c-2.39 6.764 2.627 13.858 9.801 13.858h37.896l-12.221 58.24c-1.517 7.229 7.813 11.506 12.3 5.639l57.959-75.793c5.23-6.84.353-16.709-8.257-16.709h-30.37l43.7-69.727c3.351-5.347-.493-12.293-6.803-12.293h-64.126c-3.403-.001-6.437 2.145-7.571 5.354z" fill="#ffc250"/><g fill="#e7a52e"><path d="m228.002 502.456c-4.666 4.78-13.133.567-11.685-6.349l12.22-58.241h3.602c3.2 0 5.589 2.943 4.932 6.074l-10.946 52.166c-.549 2.619.325 4.852 1.877 6.35z"/><path d="m242.919 327.224c-3.403 0-6.438 2.144-7.573 5.354l-32.309 91.431c-2.39 6.763 2.629 13.857 9.802 13.857h-22.197c-7.173 0-12.192-7.095-9.802-13.857l32.309-91.431c1.134-3.21 4.166-5.354 7.569-5.354z"/></g></g><g><path d="m313.879 17.906-62.791 177.695c-4.645 13.145 5.106 26.933 19.048 26.933h73.65l-23.75 113.189c-2.948 14.05 15.184 22.363 23.905 10.959l112.643-147.303c10.165-13.293.687-32.474-16.048-32.474h-59.023l84.93-135.514c6.512-10.392-.958-23.891-13.223-23.891h-124.628c-6.614 0-12.51 4.17-14.713 10.406z" fill="#ffc250"/><g fill="#e7a52e"><path d="m342.745 348.063c-9.067 9.289-25.525 1.102-22.71-12.339l23.75-113.19h7.001c6.218 0 10.862 5.72 9.585 11.805l-21.273 101.384c-1.066 5.088.632 9.428 3.647 12.34z"/><path d="m371.737 7.501c-6.613 0-12.513 4.166-14.717 10.405l-62.792 177.694c-4.645 13.144 5.109 26.932 19.05 26.932h-43.139c-13.941 0-23.694-13.788-19.05-26.932l62.791-177.693c2.204-6.239 8.097-10.405 14.71-10.405h43.147z"/></g></g></g><g><g><path d="m108.052 416.747c-2.546 0-5.143-.554-7.644-1.699-7.814-3.576-11.88-11.631-10.118-20.044l5.77-27.52c.85-4.054 4.827-6.651 8.879-5.801 4.054.85 6.651 4.825 5.801 8.879l-5.77 27.519c-.404 1.931.69 2.876 1.679 3.329.984.45 2.408.662 3.598-.898l87.57-114.511c1.937-2.533 2.249-5.752.836-8.611-1.415-2.863-4.165-4.572-7.359-4.572h-45.878c-2.728 0-5.241-1.481-6.562-3.868s-1.242-5.303.207-7.614l66.019-105.336c1.311-2.091.529-3.987.131-4.705s-1.589-2.391-4.056-2.391h-96.875c-1.955 0-3.706 1.239-4.357 3.083l-48.82 138.139c-.898 2.542-.52 5.263 1.036 7.464 1.558 2.203 4.001 3.466 6.702 3.466h57.247c2.259 0 4.398 1.019 5.822 2.772 1.424 1.754 1.982 4.056 1.518 6.267l-6.58 31.359c-.85 4.055-4.831 6.652-8.88 5.8-4.054-.851-6.651-4.826-5.8-8.88l4.683-22.319h-48.009c-7.523 0-14.606-3.665-18.948-9.804-4.341-6.137-5.437-14.033-2.933-21.123l48.818-138.135c2.76-7.828 10.195-13.09 18.501-13.09h96.875c7.25 0 13.673 3.787 17.182 10.131 3.508 6.342 3.303 13.794-.549 19.934l-58.819 93.849h32.327c8.894 0 16.866 4.953 20.806 12.926 3.938 7.97 3.031 17.308-2.369 24.368l-87.566 114.505c-3.538 4.637-8.712 7.131-14.115 7.131z"/></g><g><path d="m223.238 512c-2.048 0-4.137-.446-6.147-1.368-6.269-2.873-9.529-9.339-8.113-16.088l10.323-49.197h-28.657c-5.8 0-11.261-2.827-14.61-7.562s-4.194-10.826-2.262-16.294l32.307-91.427c2.188-6.193 8.072-10.355 14.641-10.355h64.123c5.646 0 10.852 3.069 13.586 8.009s2.57 10.981-.428 15.765l-36.501 58.242h16.818c6.857 0 13.004 3.819 16.042 9.966 3.038 6.148 2.337 13.35-1.828 18.797l-57.956 75.79c-2.846 3.721-7.001 5.722-11.338 5.722zm-2.518-177.292c-.224 0-.424.142-.499.353l-32.307 91.427c-.434 1.229.043 2.179.366 2.636s1.06 1.223 2.363 1.223h37.894c2.259 0 4.398 1.019 5.822 2.772 1.424 1.754 1.982 4.056 1.518 6.267l-11.71 55.806 56.448-73.815c.95-1.243.593-2.439.295-3.041-.297-.602-1.03-1.612-2.595-1.612h-30.369c-2.728 0-5.241-1.481-6.562-3.868s-1.242-5.303.207-7.614l43.698-69.724c.066-.105.166-.264.014-.537-.151-.273-.338-.273-.463-.273zm-7.57-2.146h.01z"/></g><g><path d="m333.42 359.538c-2.977 0-6.011-.648-8.934-1.988-9.115-4.178-13.855-13.576-11.795-23.386l21.852-104.145h-64.41c-8.976 0-17.429-4.374-22.613-11.7-5.185-7.327-6.496-16.757-3.509-25.224l62.798-177.685c3.249-9.215 12.003-15.41 21.78-15.41h124.625c8.525 0 16.079 4.454 20.209 11.914 4.13 7.462 3.893 16.231-.634 23.456l-25.5 40.69c-2.199 3.509-6.826 4.573-10.337 2.372-3.51-2.199-4.572-6.827-2.372-10.337l25.499-40.688c2.288-3.652.917-6.97.221-8.228-.696-1.256-2.778-4.179-7.086-4.179h-124.625c-3.428 0-6.497 2.172-7.636 5.404l-62.799 177.686c-1.39 3.939-.804 8.155 1.609 11.566 2.412 3.409 6.191 5.364 10.369 5.364h73.647c2.259 0 4.398 1.019 5.822 2.772 1.424 1.754 1.982 4.056 1.518 6.267l-23.749 113.186c-.911 4.34 2.346 6.202 3.365 6.67 1.019.467 4.553 1.717 7.245-1.804l112.636-147.295c3.003-3.925 3.489-8.913 1.3-13.344-2.19-4.433-6.448-7.08-11.393-7.08h-59.017c-2.728 0-5.241-1.481-6.562-3.868s-1.242-5.302.207-7.614l43.658-69.656c2.2-3.51 6.827-4.571 10.337-2.372 3.51 2.2 4.572 6.828 2.372 10.337l-36.461 58.174h45.466c10.619 0 20.137 5.915 24.841 15.436 4.702 9.52 3.616 20.67-2.835 29.1l-112.633 147.291c-4.133 5.408-10.172 8.317-16.476 8.318z"/></g></g></g></svg>